<svg width="270" height="99" viewBox="0 0 270 99" fill="none" xmlns="http://www.w3.org/2000/svg">
<g opacity="0.6">
<path fill-rule="evenodd" clip-rule="evenodd" d="M204.732 11.7405C204.565 11.8054 202.3 14.0029 199.7 16.6241C195.802 20.554 194.973 21.4894 194.973 21.958C194.973 22.3856 195.288 22.8352 196.244 23.7753C196.943 24.4624 197.729 25.0887 197.99 25.1673C198.409 25.2931 199.051 24.7193 203.353 20.3729C207.208 16.4783 208.24 15.324 208.24 14.9073C208.24 14.5217 207.854 14.0017 206.815 12.9846C205.381 11.5806 205.288 11.5254 204.732 11.7405ZM205.342 31.6571C205.286 31.7137 204.6 31.8131 203.818 31.878C201.601 32.0614 200.677 32.2139 199.141 32.6489C195.208 33.7631 192.9 35.1061 190.076 37.9243C186.448 41.5453 184.957 44.6198 184.082 50.2845C183.714 52.6702 183.719 54.4406 184.102 57.0318C184.753 61.4335 186.016 64.5023 188.396 67.4672C191.943 71.8834 196.389 74.3889 201.988 75.125C205.71 75.6144 214.74 75.5244 215.27 74.9927C215.345 74.9175 215.439 74.0346 215.478 73.0306C215.533 71.6243 215.476 71.0926 215.23 70.7161L214.911 70.2274L209.364 70.1245C203.616 70.0182 201.718 69.8848 201.388 69.564C201.282 69.4609 200.997 69.3764 200.755 69.3764C199.495 69.3764 195.865 67.3835 194.085 65.7144C193.008 64.7047 191.401 62.4157 190.851 61.1066C190.375 59.9723 189.687 57.3507 189.687 56.6695C189.687 56.1178 189.716 56.1037 190.856 56.0986C191.499 56.0956 196.965 56.0372 203.002 55.9685C212.764 55.8577 214.008 55.8074 214.239 55.5144C214.568 55.0981 214.468 51.5066 214.118 51.1551C213.943 50.9787 210.74 50.914 201.835 50.9068L189.789 50.897L189.829 50.0074C189.885 48.7922 190.619 46.4344 191.362 45.0847C193.08 41.9649 195.315 39.9712 198.633 38.5988C201.93 37.2354 204.088 36.9099 209.833 36.9099C212.674 36.9099 214.673 36.8266 214.912 36.6986C215.262 36.5105 215.305 36.2543 215.305 34.3753C215.305 32.7177 215.237 32.207 214.99 32.0012C214.762 31.8109 213.406 31.7132 210.059 31.6463C207.521 31.5956 205.398 31.6003 205.342 31.6571ZM119.34 32.1921C116.754 32.7289 114.947 33.3323 113.153 34.2577C105.612 38.1473 101.071 45.7641 101.212 54.2856C101.339 61.9761 105.163 68.5553 111.919 72.7057C113.489 73.6703 116.059 74.7429 117.612 75.0815C118.283 75.2279 119.152 75.4278 119.543 75.5258C120.716 75.8194 125.393 75.7369 127.03 75.3939C132.533 74.241 137.043 71.3601 140.448 66.824C141.516 65.4006 143.052 62.4569 143.539 60.9024C143.679 60.4532 143.867 59.9019 143.955 59.6773C144.284 58.8456 144.393 57.7567 144.486 54.3828C144.569 51.3542 144.528 50.6967 144.148 49.0738C142.47 41.9038 137.914 36.3949 131.336 33.5824C127.65 32.0067 122.891 31.4549 119.34 32.1921ZM62.1143 32.3654C60.4056 33.0756 59.7941 34.2054 59.3779 37.4204C59.2471 38.4311 59.0581 39.8554 58.9576 40.5854C58.8572 41.3154 58.674 42.6936 58.5506 43.6482C58.427 44.6028 58.2448 45.9352 58.146 46.609C58.047 47.2829 57.865 48.6611 57.7414 49.6719C57.6178 50.6826 57.4332 52.0609 57.3309 52.7348C57.2288 53.4086 57.0463 54.7409 56.9257 55.6955C56.8049 56.6501 56.6175 58.0972 56.5091 58.9116C56.4009 59.7259 56.2177 61.1042 56.1023 61.9744C55.8872 63.5955 55.4338 66.8099 55.0869 69.1722C54.9798 69.9022 54.8515 70.9129 54.8021 71.4183C54.7525 71.9237 54.6477 72.8638 54.5693 73.5074C54.3647 75.183 54.5099 75.2979 56.8322 75.2979C57.8735 75.2979 58.9375 75.2169 59.1963 75.118C59.7829 74.8938 60.0258 74.0328 60.4709 70.6015C60.6531 69.1977 60.8428 67.7735 60.8926 67.4366C61.0369 66.4585 61.9799 59.6299 62.2178 57.8396C62.3371 56.9411 62.5177 55.6088 62.6191 54.8788C63.0018 52.124 63.6184 47.3547 63.8337 45.486C64.2062 42.2536 64.522 40.256 64.5921 40.6875C64.6287 40.9121 64.7468 41.4174 64.8548 41.8105C66.8017 48.9019 67.8856 52.7111 68.8359 55.8023C69.2165 57.0403 69.5278 58.2065 69.5278 58.3937C69.5278 58.5812 69.6193 58.7911 69.7311 58.8605C69.8429 58.9299 69.9344 59.2066 69.9344 59.4755C69.9344 59.7445 70.0208 60.1755 70.1263 60.4334C70.2321 60.6913 70.5159 61.5916 70.7574 62.4339C70.999 63.2762 71.2675 64.195 71.3542 64.4758C71.4408 64.7565 71.7193 65.6754 71.9726 66.5177C73.0211 70.001 74.2264 73.5088 74.5399 73.9893C75.1086 74.861 75.8342 75.0937 77.982 75.0937C81.2286 75.0937 81.584 74.6647 83.1434 68.8659C83.2341 68.529 83.6393 67.1507 84.0443 65.803C84.4491 64.4554 84.9651 62.7095 85.1908 61.9234C85.7003 60.149 86.5926 57.1939 86.8248 56.5123C86.9206 56.2315 87.7328 53.3831 88.6301 50.1824C89.5273 46.9817 90.3452 44.0873 90.4481 43.7503C90.5508 43.4134 90.7515 42.6324 90.894 42.0147C91.2604 40.429 91.4319 40.3589 91.5765 41.7362C91.6456 42.3947 91.7908 43.6458 91.899 44.5161C92.4184 48.6936 92.5172 49.4816 92.7175 51.0502C92.8358 51.9766 93.02 53.332 93.1268 54.062C93.6219 57.4455 94.1779 61.3688 94.5591 64.1695C94.7883 65.8541 95.0144 67.4161 95.0611 67.6408C95.1811 68.2151 95.4781 70.1066 95.6385 71.3162C95.9053 73.3297 96.221 74.6845 96.4725 74.8943C96.6271 75.0229 97.6436 75.0846 99.0376 75.0496L101.347 74.9916L101.416 74.277C101.454 73.8839 101.382 72.8732 101.256 72.0309C100.961 70.0572 100.71 68.2517 100.446 66.2114C100.039 63.0569 99.7925 61.2941 99.5038 59.4731C99.3436 58.4623 98.7993 54.5572 98.2944 50.7949C97.7894 47.0327 97.2846 43.3113 97.1723 42.5252C97.0603 41.7391 96.8786 40.4298 96.7686 39.6155C96.0913 34.5991 95.9429 34.0666 94.9404 33.0599C93.988 32.1035 92.6329 31.8313 90.3721 32.1425C89.6448 32.2425 89.2144 32.4579 88.6374 33.0103C87.9819 33.638 87.7615 34.1015 87.1239 36.1952C85.9081 40.1864 85.7525 40.6703 85.5651 41.0419C85.4669 41.2369 85.3868 41.5126 85.3874 41.6545C85.388 41.7964 85.1068 42.8315 84.7628 43.9545C84.4186 45.0776 84.0398 46.364 83.9211 46.8132C83.5649 48.1594 83.3815 48.7939 82.9767 50.0803C82.4861 51.6399 80.8738 57.0377 80.5068 58.35C80.3968 58.7431 80.1325 59.662 79.9196 60.3919C79.7066 61.1219 79.3316 62.5002 79.0864 63.4548C78.8414 64.4094 78.5574 65.4016 78.4556 65.6595C78.3537 65.9174 78.2689 66.3309 78.2673 66.5783C78.2655 66.8258 78.1831 67.1568 78.0839 67.314C77.8808 67.6363 77.9316 67.7912 75.9129 60.6982C75.1777 58.1152 74.4976 55.7262 74.4017 55.3893C73.9275 53.7263 73.7606 53.1007 73.6663 52.6327C73.6097 52.3519 73.4882 51.9384 73.3961 51.7138C73.1492 51.1125 72.8735 50.2549 72.4106 48.6509C72.1839 47.8648 71.7073 46.2568 71.3517 45.0776C70.9961 43.8984 70.5395 42.3823 70.3372 41.7084C68.4917 35.5645 67.822 33.7266 67.2016 33.1036C66.1218 32.0191 63.7687 31.6775 62.1143 32.3654ZM149.622 32.6113C148.236 33.0338 147.582 33.668 147.101 35.0575C146.827 35.8469 146.788 38.3903 146.788 55.1026C146.788 65.6301 146.843 74.3889 146.911 74.5665C147.014 74.8361 147.435 74.8896 149.445 74.8896C151.618 74.8896 151.877 74.8508 152.066 74.4959C152.208 74.229 152.238 68.5508 152.157 56.8843C152.042 40.1167 152.049 39.683 152.412 40.2983C153.281 41.7687 154.31 43.3985 155.886 45.8012C156.809 47.2073 157.563 48.3945 157.563 48.4396C157.563 48.4847 158.204 49.4922 158.986 50.6786C159.769 51.8649 160.41 52.9202 160.41 53.0235C160.41 53.1268 160.486 53.2418 160.578 53.2793C160.671 53.3167 161.241 54.1284 161.845 55.083C162.449 56.0376 163.01 56.9105 163.092 57.0228C163.174 57.1351 165.585 60.7646 168.45 65.0884C171.315 69.4121 173.994 73.2566 174.404 73.6317C175.629 74.7521 176.174 74.9512 177.713 74.8405C179.977 74.678 181.104 73.7005 181.557 71.5069C181.721 70.7138 181.768 65.0148 181.722 51.6033C181.664 35.1696 181.618 32.7869 181.351 32.6176C180.894 32.3272 176.808 32.3654 176.512 32.6627C176.326 32.8494 176.267 36.9987 176.264 50.0701L176.26 67.2324L175.35 65.803C173.42 62.7722 169.728 57.099 166.56 52.2996C164.743 49.5465 163.256 47.2087 163.256 47.1046C163.256 47.0005 163.171 46.9153 163.066 46.9153C162.962 46.9153 162.819 46.7321 162.748 46.5081C162.677 46.2841 162.492 45.9732 162.337 45.8172C162.181 45.661 161.89 45.2536 161.689 44.912C161.359 44.3492 157.776 38.9304 157.411 38.4414C157.327 38.3291 156.807 37.548 156.256 36.7057C154.721 34.3598 153.786 33.32 152.787 32.8483C151.863 32.412 150.589 32.3166 149.622 32.6113ZM126.189 37.5015C127.063 37.7144 128.051 37.996 128.384 38.1271C134.013 40.3389 137.916 45.175 138.859 51.1076C140.045 58.5616 136.386 65.7038 129.72 68.9466C129.004 69.2953 128.256 69.5806 128.059 69.5806C127.861 69.5806 127.65 69.6623 127.588 69.7623C127.527 69.8622 127.132 70.0124 126.712 70.0962C125.686 70.301 120.253 70.3089 119.255 70.1074C118.068 69.8675 115.488 68.7252 114.239 67.8864C112.341 66.612 110.12 64.3181 109.256 62.7402C107.458 59.459 106.941 57.7524 106.788 54.6009C106.558 49.8491 108.312 45.3343 111.722 41.9016C115.575 38.0228 121.249 36.2971 126.189 37.5015Z" fill="white"/>
</g>
</svg>
