<svg width="209" height="47" viewBox="0 0 209 47" fill="none" xmlns="http://www.w3.org/2000/svg">
<g clip-path="url(#clip0_1_3047)">
<path d="M175.024 5.53433L170.466 23.6264L170.581 23.6792C171.013 23.1031 171.404 22.5149 171.873 21.9592C173.95 19.4036 176.452 17.4564 179.804 16.8439C184.918 15.9069 190.447 17.858 191.833 24.6122C193.335 31.9139 189.599 40.68 183.252 44.7203C180.117 46.7161 176.703 47.4828 173.037 46.5944C169.812 45.8156 167.994 43.5926 167.212 40.5097C166.928 39.3941 166.846 38.2258 166.665 37.0576C166.583 37.1509 166.463 37.2604 166.364 37.3902C164.308 40.1527 162.23 42.8949 160.227 45.6898C159.754 46.347 159.26 46.6431 158.474 46.5255C158.281 46.4971 158.063 46.5255 157.804 46.493C158.145 45.1179 158.474 43.7873 158.807 42.4365C161.824 30.3886 164.841 18.3394 167.858 6.28884C168.002 5.70876 168.195 5.47754 168.862 5.47754C170.881 5.57084 172.905 5.53433 175.024 5.53433ZM185 26.6282C184.934 25.9021 184.906 25.2003 184.799 24.5067C184.149 20.2514 180.339 18.1988 176.345 19.9512C174.58 20.7219 173.267 22.0241 172.153 23.5331C170.123 26.3813 168.783 29.651 168.236 33.0903C167.85 35.2402 167.669 37.4064 168.236 39.5564C169.31 43.6129 173.136 45.2355 176.834 43.0977C177.74 42.5798 178.559 41.9287 179.265 41.1668C183.026 37.0494 184.613 32.064 185 26.6445V26.6282Z" fill="white"/>
<path d="M87.3996 46.3676L89.5018 38.0882L96.0058 12.5646C96.5612 10.3984 97.1042 8.2241 97.676 6.07415C97.7295 5.87538 97.964 5.5752 98.1203 5.57114C100.301 5.53869 102.485 5.5468 104.756 5.5468C103.205 11.6316 101.671 17.6352 100.095 23.8011C100.831 22.8195 101.42 21.9473 102.094 21.1441C105.385 17.1971 110.486 15.6638 115.205 17.1566C118.36 18.1545 120.29 20.5803 120.623 23.9026C120.849 26.158 120.335 28.3079 119.776 30.4579C118.423 35.6178 117.084 40.7763 115.756 45.9335C115.723 46.0593 115.674 46.181 115.621 46.3392H108.767C109.014 45.3494 109.252 44.388 109.495 43.4266C110.816 38.2343 112.148 33.05 113.44 27.8536C113.862 26.3183 113.874 24.7018 113.477 23.1602C113.242 22.1767 112.683 21.2974 111.889 20.6592C111.094 20.0209 110.108 19.6595 109.084 19.631C106.007 19.4039 103.736 20.8115 101.876 23.0629C99.881 25.4968 98.9102 28.3769 98.1738 31.3625C96.9671 36.1979 95.7329 41.0265 94.4713 45.8483C94.422 46.0471 94.1834 46.3473 94.027 46.3473C91.8549 46.3757 89.6746 46.3676 87.3996 46.3676Z" fill="white"/>
<path d="M148.736 46.5294C148.074 43.5438 147.42 40.619 146.725 37.4955C146.54 37.8565 146.424 38.0675 146.313 38.2825C144.544 41.8197 142.109 44.7202 138.25 46.1399C135.173 47.2717 132.038 47.3569 129.011 45.9696C125.983 44.5822 124.81 42.0712 124.654 38.9599C124.547 36.8667 125.127 34.875 125.637 32.8751C126.918 27.8585 128.199 22.8393 129.48 17.8173C129.558 17.5009 129.587 17.1926 130.076 17.2007C132.133 17.225 134.19 17.2007 136.247 17.2007C136.362 17.2127 136.476 17.233 136.588 17.2616C136.317 18.3203 136.053 19.3507 135.786 20.381C134.49 25.4192 133.161 30.4493 131.923 35.4997C131.659 36.6541 131.558 37.839 131.623 39.0207C131.755 42.2173 134.132 44.1928 137.382 43.9372C139.941 43.7385 141.85 42.4242 143.409 40.5379C145.388 38.1526 146.396 35.3374 147.111 32.3843C148.313 27.484 149.58 22.5959 150.814 17.7037C150.892 17.3954 150.958 17.1845 151.353 17.1885C153.41 17.1885 155.467 17.1885 157.524 17.1885C157.627 17.202 157.729 17.225 157.828 17.2575C157.499 18.5961 157.182 19.9105 156.853 21.2248C154.837 29.3189 152.819 37.4117 150.797 45.5031C150.489 46.72 150.732 46.4685 149.518 46.501L148.736 46.5294Z" fill="white"/>
<path d="M36.1695 7.25393C32.7248 7.25393 31.0039 8.13285 31.0066 9.89067V40.4687C31.0066 42.2266 32.7276 43.1041 36.1695 43.1014V46.3466H16.9167V43.1014C20.397 43.1014 22.1372 42.2239 22.1372 40.4687V9.89067C22.1372 8.13555 20.397 7.25664 16.9167 7.25393V3.87891H36.1695V7.25393Z" fill="white"/>
<path d="M65.246 3.87889C67.5217 3.863 69.7945 4.0449 72.0379 4.42246C73.9055 4.71596 75.6937 5.37824 77.2954 6.36959C78.7514 7.30721 79.9171 8.62234 80.6646 10.1706C81.4572 11.7742 81.8549 13.8133 81.8576 16.2878C81.8604 18.7623 81.4627 20.8581 80.6646 22.5754C79.924 24.1915 78.7595 25.5834 77.2913 26.6076C75.7077 27.672 73.9175 28.4013 72.0338 28.7494C69.795 29.189 67.5163 29.4011 65.2336 29.3822H56.286V40.4606C56.286 42.2211 58.4321 43.1014 62.7242 43.1014V46.3466H42.2537V43.1014C45.6929 43.1014 47.4138 42.2238 47.4166 40.4687V9.89065C47.4166 8.13553 45.6956 7.25662 42.2537 7.25391V3.87889H65.246ZM56.286 8.68587V24.6929H64.2299C67.3619 24.6929 69.6039 23.9857 70.956 22.5713C72.3081 21.157 72.9841 19.0719 72.9841 16.3162C72.9841 13.9066 72.3081 12.0311 70.956 10.6898C69.6039 9.34843 67.3619 8.68046 64.2299 8.68587H56.286Z" fill="white"/>
<path d="M198.981 8.89494C199.29 9.18059 199.647 9.4103 200.036 9.57371C200.696 9.82576 201.412 9.89909 202.11 9.78622C202.472 9.74328 202.828 9.65811 203.171 9.53247C202.388 12.3008 200.878 14.8113 198.797 16.8054C200.942 16.6697 203.002 15.9196 204.729 14.6454C207.099 12.8629 209.355 9.57053 208.953 6.01177C208.886 5.43132 208.51 2.64013 206.494 1.14621C205.188 0.175636 203.621 -0.17855 201.794 0.0836531C200.291 0.299336 199.131 0.90198 198.309 1.8789C197.487 2.85581 197.184 4.09916 197.401 5.59309C197.609 7.0204 198.136 8.12102 198.981 8.89494Z" fill="#DA4533"/>
<path d="M10.0185 8.89494C9.70939 9.18059 9.35252 9.4103 8.96399 9.57371C8.30365 9.82576 7.588 9.89909 6.88994 9.78622C6.52754 9.74328 6.17146 9.65811 5.82902 9.53247C6.61179 12.3008 8.12174 14.8113 10.2033 16.8054C8.05812 16.6697 5.99805 15.9196 4.27109 14.6454C1.90074 12.8629 -0.354911 9.57053 0.0465183 6.01176C0.113423 5.43132 0.489376 2.64013 2.50608 1.14621C3.81232 0.175636 5.37874 -0.17855 7.20535 0.0836531C8.70912 0.299336 9.8688 0.90198 10.6908 1.8789C11.5128 2.85581 11.8154 4.09916 11.5988 5.59309C11.3906 7.0204 10.8639 8.12102 10.0185 8.89494Z" fill="#DA4533"/>
</g>
<defs>
<clipPath id="clip0_1_3047">
<rect width="209" height="47" fill="white"/>
</clipPath>
</defs>
</svg>
