<svg width="167" height="176" viewBox="0 0 167 176" fill="none" xmlns="http://www.w3.org/2000/svg">
<path d="M80.1859 167.116C80.1303 167.116 80.0746 167.116 80.0375 167.097L45.1531 160.135C45.0417 160.116 44.9304 160.076 44.8562 159.998L16.596 140.443C16.5032 140.384 16.429 140.286 16.3548 140.188L6.11221 124.329C5.96376 124.094 5.92665 123.82 6.00088 123.547L16.0208 91.3974L18.73 65.5449L3.81122 36.4462C3.69989 36.2311 3.68139 35.9574 3.75561 35.7227C3.82984 35.488 4.01541 35.2925 4.23808 35.1947L28.9911 24.5173L52.0928 7.97336C52.3155 7.81691 52.6124 7.77779 52.8537 7.87557L75.7883 16.7538C75.9182 16.8124 76.0481 16.8907 76.1409 17.008L83.9898 26.9031L133.069 24.8889C133.181 24.8889 133.31 24.9085 133.403 24.9476L163.909 37.5413C164.131 37.6391 164.298 37.8151 164.391 38.0498C164.484 38.2844 164.465 38.5387 164.354 38.7734L149.213 70.5902L134.461 99.1022L133.403 128.123C133.403 128.279 133.348 128.436 133.255 128.572L123.977 143.298C123.921 143.396 123.847 143.474 123.754 143.532L103.807 158.375C103.733 158.414 103.677 158.453 103.603 158.492L80.4643 167.038C80.3901 167.097 80.2787 167.116 80.1859 167.116ZM45.6355 158.414L80.1302 165.317L102.954 156.889L122.678 142.222L131.733 127.849L132.791 98.8676C132.791 98.7307 132.828 98.5938 132.902 98.4765L147.728 69.808L162.443 38.8907L132.958 26.7271L83.6373 28.7413C83.396 28.7609 83.1177 28.6436 82.9507 28.4284L74.9904 18.3769L52.668 9.73334L29.7705 26.1209L5.74107 36.5049L20.3443 64.9778C20.4185 65.1342 20.4556 65.3102 20.437 65.5058L17.6537 91.808L7.72653 123.723L17.6351 139.074L45.6355 158.414Z" fill="white"/>
<path d="M80.1859 167.116C79.7406 167.116 79.3694 166.745 79.3509 166.276L78.2004 144.276C78.2004 144.197 78.2005 144.139 78.219 144.06L85.4 103.307L80.9282 62.8071C80.8911 62.4355 81.0766 62.064 81.3921 61.9076L106.442 49.0987L137.077 37.2676C137.17 37.2284 137.281 37.2284 137.374 37.2089L163.612 37.5413C164.076 37.5413 164.447 37.952 164.447 38.4409C164.447 38.9298 164.057 39.3209 163.593 39.3209C163.593 39.3209 163.593 39.3209 163.575 39.3209L137.485 38.9885L107.073 50.7413L82.6538 63.2373L87.0701 103.248C87.0701 103.326 87.0701 103.424 87.0701 103.522L79.889 144.315L81.0395 166.217C81.0581 166.706 80.7054 167.136 80.2415 167.156C80.223 167.116 80.2045 167.116 80.1859 167.116Z" fill="white"/>
<path d="M81.763 63.5698C81.7445 63.5698 81.726 63.5698 81.7074 63.5698L52.4267 61.4578C52.2783 61.4382 52.1113 61.3795 52 61.3013L30.1972 44.8551L4.33075 36.896C3.88542 36.7591 3.62564 36.2702 3.75553 35.8009C3.88542 35.3315 4.3493 35.0578 4.79464 35.1947L30.791 43.2124C30.8838 43.232 30.9766 43.2907 31.0508 43.3493L52.7793 59.7369L81.8188 61.8293C82.2827 61.8684 82.6352 62.2791 82.5981 62.7876C82.5795 63.2178 82.2084 63.5698 81.763 63.5698Z" fill="white"/>
<path d="M123.29 143.728C122.882 143.728 122.53 143.415 122.455 142.985L116.536 105.751C116.518 105.634 116.518 105.497 116.555 105.38L126 68.5369L136.242 38.7538L106.331 32.6329L70.0175 29.4453C69.8134 29.4258 69.6092 29.328 69.4794 29.1716L51.9629 9.36177C51.6475 9.00977 51.6661 8.44266 52.0001 8.11021C52.3341 7.77777 52.8722 7.79733 53.1876 8.14933L70.4814 27.7049L106.553 30.8729L137.523 37.2089C137.764 37.2676 137.968 37.424 138.098 37.6391C138.228 37.8738 138.246 38.128 138.153 38.3822L127.595 69.0649L118.225 105.653L124.107 142.711C124.181 143.2 123.866 143.65 123.42 143.728C123.383 143.728 123.328 143.728 123.29 143.728Z" fill="white"/>
<path d="M103.343 158.571C103.325 158.571 103.325 158.571 103.306 158.571C102.842 158.551 102.471 158.14 102.508 157.632L103.807 126.46L105.013 87.936L105.941 50.7805L79.5736 52.0907C79.4251 52.0907 79.2767 52.0711 79.1468 51.9929L53.5772 38.2845L28.9541 26.16C28.5273 25.9449 28.3417 25.4169 28.5458 24.9867C28.7499 24.5369 29.251 24.3413 29.6592 24.5564L54.3009 36.7005L79.7035 50.3307L106.758 48.9813C106.999 49.0009 107.221 49.0595 107.388 49.2355C107.555 49.4115 107.648 49.6462 107.648 49.9005L106.683 88.0142L105.477 126.558L104.178 157.73C104.16 158.199 103.789 158.571 103.343 158.571Z" fill="white"/>
<path d="M45.3201 160.135C44.8562 160.135 44.485 159.744 44.4665 159.275L43.9654 139.015C43.9654 138.898 43.984 138.78 44.0211 138.683L57.6223 101.39L51.6475 60.7147C51.5918 60.2845 51.833 59.8738 52.2227 59.7369L79.1468 50.4284L106.015 31.0293C106.108 30.9707 106.201 30.912 106.312 30.8925L132.921 24.9671C133.385 24.8498 133.83 25.1822 133.923 25.6516C134.016 26.1405 133.719 26.6098 133.273 26.7076L106.832 32.5938L80.0004 51.9734C79.9262 52.0125 79.8704 52.0516 79.7776 52.0907L53.4103 61.2036L59.2923 101.351C59.3109 101.508 59.2924 101.664 59.2367 101.801L45.6169 139.152L46.1179 159.236C46.1365 159.724 45.7654 160.135 45.3015 160.155C45.32 160.135 45.3201 160.135 45.3201 160.135Z" fill="white"/>
<path d="M17.0413 140.58C16.9114 140.58 16.7816 140.54 16.6517 140.482C16.2435 140.247 16.0765 139.719 16.2991 139.289L29.2509 113.124L42.8521 84.8071L29.7705 44.3271C29.6963 44.0925 29.7148 43.8382 29.8261 43.6036C29.9374 43.3885 30.1416 43.232 30.3643 43.1733L54.672 37.2284L69.6464 27.7636C70.036 27.5093 70.5741 27.6462 70.8154 28.0765C71.0566 28.5067 70.9266 29.0542 70.5184 29.3085L55.4327 38.832C55.3585 38.8711 55.2843 38.9102 55.1915 38.9298L31.6631 44.6987L44.5592 84.5725C44.6334 84.8071 44.6148 85.0418 44.5221 85.2569L30.7539 113.925L17.7836 140.11C17.6351 140.404 17.3382 140.58 17.0413 140.58Z" fill="white"/>
<path d="M79.054 145.097C79.0169 145.097 78.9798 145.097 78.9241 145.097L44.6891 139.876C44.4479 139.836 44.2252 139.68 44.0953 139.465L29.288 114.004L16.1135 92.1796C15.8723 91.7689 15.9836 91.2213 16.3733 90.9476C16.763 90.6738 17.2825 90.8107 17.5423 91.2213L30.7167 113.065L45.32 138.194L78.8498 143.317L104.03 125.893L116.648 105.145C116.74 104.988 116.889 104.871 117.056 104.793L133.329 98.0854C133.756 97.9094 134.257 98.1245 134.424 98.5938C134.591 99.0436 134.387 99.5716 133.941 99.7476L117.928 106.357L105.347 127.028C105.292 127.125 105.199 127.223 105.106 127.282L79.4993 144.98C79.3694 145.058 79.2025 145.097 79.054 145.097Z" fill="white"/>
<path d="M86.2536 104.206C86.235 104.206 86.2164 104.206 86.1979 104.206L58.4387 102.348C58.216 102.329 58.0119 102.231 57.8635 102.055L42.9449 84.8267L19.101 66.0729C18.7299 65.7795 18.6556 65.2124 18.934 64.8213C19.2123 64.4302 19.7319 64.352 20.1216 64.6453L44.0767 83.4969L58.8841 100.569L85.9938 102.388L105.347 87.232L126.259 68.048C126.426 67.8916 126.649 67.8133 126.872 67.8329L148.526 69.2996C148.99 69.3387 149.342 69.7493 149.305 70.2382C149.268 70.7271 148.86 71.0987 148.415 71.0595L127.113 69.6124L106.405 88.6009L86.7545 103.991C86.6061 104.148 86.4206 104.206 86.2536 104.206Z" fill="white"/>
<path d="M62.057 163.029C61.9272 163.029 61.7973 162.971 61.7231 162.853L46.6374 142.183L54.4865 160.8C54.5792 161.035 54.4864 161.289 54.2637 161.387C54.0596 161.484 53.7998 161.387 53.707 161.152L44.4293 139.132C44.3365 138.917 44.4108 138.683 44.5963 138.565C44.7819 138.448 45.0231 138.507 45.153 138.683L62.391 162.286C62.5395 162.482 62.5024 162.756 62.3168 162.912C62.2241 163.01 62.1498 163.029 62.057 163.029Z" fill="white"/>
<path d="M76.215 165.865C76.1222 165.865 76.0294 165.826 75.9552 165.767L50.6269 144.432L68.8855 163.577C69.0525 163.753 69.0525 164.027 68.8855 164.203C68.7185 164.379 68.4587 164.379 68.2917 164.203L44.5221 139.289C44.3551 139.132 44.3552 138.859 44.5036 138.683C44.652 138.507 44.9118 138.487 45.0788 138.624L76.4748 165.063C76.6603 165.22 76.6788 165.493 76.549 165.689C76.4562 165.806 76.3263 165.865 76.215 165.865Z" fill="white"/>
<path d="M80.0189 163.303C79.9446 163.303 79.8519 163.284 79.7962 163.225L44.5778 139.348C44.3922 139.211 44.3365 138.956 44.4293 138.761C44.5407 138.546 44.7819 138.468 44.986 138.585L79.8705 156.126C80.0746 156.224 80.1674 156.498 80.0746 156.713C79.9818 156.928 79.7221 157.026 79.5179 156.928L50.6455 142.418L80.2601 162.482C80.4642 162.619 80.5199 162.892 80.39 163.088C80.2972 163.225 80.1488 163.303 80.0189 163.303Z" fill="white"/>
<path d="M79.3509 150.475C79.3138 150.475 79.2767 150.475 79.221 150.455L44.6706 139.406C44.4479 139.328 44.3181 139.093 44.3923 138.859C44.4665 138.624 44.6891 138.487 44.9118 138.565L79.4622 149.614C79.6849 149.692 79.8148 149.927 79.7406 150.162C79.7035 150.338 79.5365 150.475 79.3509 150.475Z" fill="white"/>
<path d="M72.5225 143.669C72.4668 143.669 72.4297 143.669 72.374 143.65C72.1514 143.572 72.0401 143.317 72.1143 143.083L83.6187 109.643L67.4383 142.613C67.327 142.828 67.0672 142.926 66.8631 142.809C66.659 142.692 66.5661 142.418 66.6775 142.203L85.8454 103.131C85.9382 102.916 86.1793 102.837 86.3834 102.935C86.5876 103.033 86.6804 103.268 86.6062 103.502L72.8751 143.396C72.8565 143.552 72.6895 143.669 72.5225 143.669Z" fill="white"/>
<path d="M61.519 141.988C61.4448 141.988 61.352 141.968 61.2777 141.909C61.0922 141.772 61.0365 141.499 61.1664 141.284L81.9487 109.154L55.5998 140.873C55.4513 141.068 55.173 141.088 55.006 140.912C54.839 140.756 54.8204 140.462 54.9688 140.286L85.9195 103.013C86.0679 102.837 86.3092 102.818 86.4948 102.955C86.6618 103.092 86.7174 103.365 86.5876 103.561L61.853 141.772C61.7787 141.909 61.6489 141.988 61.519 141.988Z" fill="white"/>
<path d="M49.0496 140.071C48.9383 140.071 48.827 140.032 48.7342 139.934C48.5857 139.758 48.5858 139.465 48.7528 139.308L80.3158 108.508L46.7487 134.713C46.5632 134.85 46.2848 134.811 46.1549 134.615C46.0065 134.42 46.0623 134.146 46.2478 133.989L85.9938 102.974C86.1793 102.837 86.4205 102.876 86.569 103.052C86.7174 103.228 86.6988 103.502 86.5318 103.659L49.328 139.973C49.2538 140.032 49.1424 140.071 49.0496 140.071Z" fill="white"/>
<path d="M49.3465 126.949C49.1981 126.949 49.0682 126.871 48.9754 126.734C48.8641 126.519 48.9198 126.245 49.1239 126.128L81.1322 106.005L52.6309 118.345C52.4082 118.423 52.1669 118.325 52.0742 118.11C51.9814 117.876 52.0927 117.621 52.2968 117.524L86.0679 102.896C86.2721 102.818 86.5134 102.896 86.6061 103.111C86.6989 103.326 86.6432 103.58 86.4391 103.698L49.5506 126.891C49.495 126.93 49.4208 126.949 49.3465 126.949Z" fill="white"/>
<path d="M54.7092 112.244C54.5237 112.244 54.3566 112.107 54.3009 111.911C54.2453 111.676 54.3752 111.422 54.5979 111.364L80.8539 104.304L56.7503 106.729C56.5276 106.788 56.305 106.572 56.2864 106.318C56.2678 106.064 56.4349 105.849 56.6575 105.829L86.1794 102.857C86.402 102.837 86.6061 102.994 86.6433 103.228C86.6804 103.463 86.5505 103.678 86.3278 103.737L54.802 112.224C54.7834 112.244 54.7463 112.244 54.7092 112.244Z" fill="white"/>
<path d="M117.371 106.044C117.241 106.044 117.111 105.986 117.037 105.868C116.907 105.692 116.926 105.419 117.093 105.262L141.512 82.7929C141.679 82.6364 141.957 82.656 142.106 82.832C142.254 83.008 142.236 83.3013 142.069 83.4578L122.53 101.449L137.226 91.1431C137.411 91.0062 137.69 91.0649 137.819 91.2604C137.949 91.456 137.894 91.7493 137.708 91.8862L117.631 105.966C117.538 106.005 117.445 106.044 117.371 106.044Z" fill="white"/>
<path d="M117.371 106.044C117.278 106.044 117.186 106.005 117.112 105.947C116.945 105.79 116.907 105.536 117.037 105.34L140.993 69.4756C141.122 69.2604 141.382 69.2213 141.586 69.3582C141.772 69.4951 141.828 69.7689 141.698 69.984L121.379 100.412L148.192 69.9058C148.359 69.7298 148.619 69.7102 148.786 69.8862C148.953 70.0427 148.971 70.336 148.804 70.512L117.705 105.888C117.594 105.986 117.483 106.044 117.371 106.044Z" fill="white"/>
<path d="M117.371 106.044C117.316 106.044 117.241 106.025 117.186 106.005C116.982 105.908 116.889 105.634 116.982 105.419L133.255 69.0258C133.348 68.8107 133.607 68.7129 133.812 68.8107C134.016 68.9085 134.108 69.1822 134.016 69.3973L117.742 105.79C117.687 105.947 117.52 106.044 117.371 106.044Z" fill="white"/>
</svg>
