<svg width="155" height="154" viewBox="0 0 155 154" fill="none" xmlns="http://www.w3.org/2000/svg">
<path d="M72.9545 153.638C72.8061 153.638 72.6391 153.599 72.5092 153.501L7.86165 111.672C7.62043 111.516 7.47198 111.261 7.45343 110.968L0.569332 8.77073C0.532221 8.28184 0.884745 7.87117 1.34863 7.8125L79.4304 0.733398L154.172 10.0027C154.618 10.0614 154.952 10.4916 154.914 10.9609L146.119 115.349C146.101 115.661 145.915 115.935 145.655 116.072L73.3256 153.541C73.1958 153.599 73.0659 153.638 72.9545 153.638ZM9.12342 110.401L72.9917 151.722L144.468 114.723L153.152 11.7041L79.3933 2.53251L2.31356 9.5334L9.12342 110.401Z" fill="white"/>
<path d="M73.7524 105.747H73.7339C73.4926 105.747 73.2514 105.61 73.103 105.414L0.77341 9.29873C0.476521 8.90762 0.550757 8.36006 0.903312 8.04717C1.27442 7.73428 1.79395 7.81252 2.09084 8.18408L73.7895 103.478L153.449 10.3352C153.764 9.96361 154.302 9.94406 154.636 10.2765C154.989 10.6089 155.007 11.1761 154.692 11.5281L74.3647 105.453C74.2163 105.629 73.9937 105.747 73.7524 105.747Z" fill="white"/>
<path d="M72.9545 153.638C72.936 153.638 72.936 153.638 72.9545 153.638C72.4721 153.638 72.101 153.228 72.101 152.739L72.8988 104.847C72.8988 104.358 73.2143 103.928 73.7524 103.967C74.2163 103.967 74.5874 104.378 74.5874 104.867L73.7895 152.758C73.7895 153.247 73.3998 153.638 72.9545 153.638Z" fill="white"/>
<path d="M126.766 125.322C126.599 125.322 126.45 125.224 126.376 125.068L102.643 70.7814C102.551 70.5663 102.625 70.3316 102.81 70.2143C102.996 70.0969 103.237 70.1556 103.367 70.3512L136.229 119.905C136.359 120.1 136.322 120.374 136.118 120.531C135.932 120.668 135.654 120.628 135.524 120.413L105.371 74.9467L127.118 124.696C127.211 124.911 127.118 125.185 126.914 125.283C126.896 125.322 126.84 125.322 126.766 125.322Z" fill="white"/>
<path d="M143.095 116.874C142.983 116.874 142.872 116.835 142.779 116.737L102.736 70.8987C102.588 70.7227 102.588 70.4685 102.736 70.2925C102.885 70.1165 103.126 70.0969 103.311 70.2534L146.323 105.766C146.509 105.923 146.546 106.197 146.397 106.392C146.249 106.588 145.989 106.627 145.804 106.47L106.893 74.3405L143.41 116.15C143.577 116.326 143.558 116.62 143.391 116.776C143.299 116.835 143.187 116.874 143.095 116.874Z" fill="white"/>
<path d="M146.954 95.8516C146.88 95.8516 146.824 95.8321 146.75 95.793L102.848 70.977C102.662 70.8596 102.569 70.6249 102.662 70.4098C102.755 70.1947 102.977 70.097 103.181 70.1556L147.9 85.4089C148.123 85.4872 148.234 85.7414 148.179 85.9761C148.104 86.2107 147.863 86.328 147.641 86.2694L107.394 72.5414L147.158 95.0107C147.362 95.128 147.437 95.4018 147.325 95.6169C147.251 95.7734 147.102 95.8516 146.954 95.8516Z" fill="white"/>
<path d="M148.476 77.6454C148.457 77.6454 148.439 77.6454 148.42 77.6454L102.977 71.0356C102.755 70.9965 102.606 70.8009 102.606 70.5663C102.625 70.3316 102.792 70.1556 103.015 70.136L149.181 68.0632C149.403 68.0827 149.608 68.2392 149.626 68.4934C149.626 68.7476 149.459 68.9432 149.218 68.9627L107.728 70.8205L148.531 76.7458C148.754 76.7849 148.921 77 148.884 77.2543C148.865 77.4889 148.698 77.6454 148.476 77.6454Z" fill="white"/>
<path d="M102.606 71.0356C102.421 71.0356 102.254 70.9183 102.198 70.7227C102.142 70.5076 102.235 70.273 102.439 70.1752L150.647 49.2507C150.869 49.153 151.111 49.2703 151.203 49.4854C151.296 49.7201 151.185 49.9743 150.981 50.0721L107.134 69.0996L149.886 59.4196C150.127 59.3805 150.331 59.5174 150.387 59.7521C150.443 59.9867 150.294 60.2214 150.071 60.2801L102.736 70.9965C102.662 71.0356 102.625 71.0356 102.606 71.0356Z" fill="white"/>
<path d="M103.033 71.0356C102.903 71.0356 102.773 70.9574 102.681 70.8401C102.551 70.6445 102.588 70.3903 102.773 70.2338L152.242 29.0498C152.428 28.8934 152.688 28.9325 152.836 29.1281C152.985 29.3236 152.948 29.5974 152.762 29.7538L108.173 66.8703L151.352 40.0205C151.556 39.8836 151.816 39.9618 151.927 40.177C152.038 40.3921 151.983 40.6658 151.779 40.7832L103.237 70.977C103.182 71.0161 103.107 71.0356 103.033 71.0356Z" fill="white"/>
<path d="M103.033 71.0356C102.922 71.0356 102.81 70.9965 102.736 70.8987C102.569 70.7227 102.588 70.4294 102.755 70.273L152.966 20.3281C153.133 20.1521 153.411 20.1716 153.56 20.3476C153.727 20.5236 153.708 20.8169 153.541 20.9734L103.33 70.9183C103.256 70.9965 103.144 71.0356 103.033 71.0356Z" fill="white"/>
<path d="M108.136 134.963C108.099 134.963 108.043 134.963 108.006 134.943C107.783 134.865 107.653 134.611 107.728 134.376L117.043 103.42C117.098 103.205 117.321 103.068 117.506 103.107C117.711 103.146 117.859 103.322 117.859 103.537V129.683C117.859 129.937 117.673 130.133 117.432 130.133C117.191 130.133 117.005 129.937 117.005 129.683V106.412L108.526 134.63C108.488 134.845 108.321 134.963 108.136 134.963Z" fill="white"/>
<path d="M85.7022 146.579C85.6095 146.579 85.5167 146.54 85.4424 146.481C85.2569 146.325 85.2197 146.051 85.3682 145.855L117.117 103.283C117.247 103.107 117.488 103.048 117.673 103.185C117.859 103.302 117.915 103.556 117.822 103.772L99.9529 139.167C99.8416 139.382 99.5818 139.46 99.3777 139.343C99.1736 139.226 99.0993 138.952 99.2107 138.737L114.834 107.761L86.0362 146.403C85.962 146.52 85.8321 146.579 85.7022 146.579Z" fill="white"/>
<path d="M73.0287 148.808C72.9174 148.808 72.806 148.769 72.7318 148.671C72.5648 148.495 72.5834 148.221 72.7504 148.045L112.478 107.976L73.2143 138.365C73.0287 138.502 72.7689 138.463 72.6205 138.268C72.4906 138.072 72.5278 137.798 72.7133 137.642L117.209 103.185C117.395 103.048 117.636 103.068 117.785 103.263C117.933 103.439 117.915 103.713 117.748 103.869L73.3256 148.671C73.2328 148.769 73.1215 148.808 73.0287 148.808Z" fill="white"/>
<path d="M73.3627 128.236C73.2143 128.236 73.0659 128.157 72.9916 128.001C72.8803 127.786 72.9731 127.512 73.1772 127.395L113.09 105.453L73.4926 118.419C73.27 118.497 73.0287 118.36 72.9545 118.125C72.8803 117.891 73.0102 117.636 73.2329 117.558L117.321 103.107C117.525 103.048 117.748 103.146 117.84 103.361C117.915 103.576 117.84 103.811 117.655 103.928L73.5669 128.157C73.4926 128.216 73.4369 128.236 73.3627 128.236Z" fill="white"/>
<path d="M73.7524 109.228C73.5483 109.228 73.3627 109.052 73.3256 108.837C73.3071 108.582 73.4741 108.367 73.6968 108.348L112.905 103.654L77.445 100.936C77.2594 100.916 77.1109 100.799 77.0738 100.623C77.0182 100.447 77.0924 100.252 77.2408 100.134L106.225 78.0756C106.41 77.9192 106.67 77.9778 106.818 78.1734C106.948 78.3689 106.911 78.6427 106.726 78.7992L78.6696 100.134L117.488 103.126C117.71 103.146 117.878 103.322 117.878 103.556C117.878 103.791 117.729 103.987 117.506 104.006L73.8081 109.228C73.771 109.228 73.771 109.228 73.7524 109.228Z" fill="white"/>
<path d="M77.4821 100.936C77.3151 100.936 77.1481 100.819 77.0924 100.643C77.0182 100.428 77.111 100.193 77.3151 100.095L109.082 84.3725C109.286 84.2552 109.546 84.3725 109.639 84.5876C109.732 84.8027 109.639 85.0765 109.435 85.1743L81.4716 99.0001L112.125 91.1387C112.348 91.0605 112.589 91.217 112.626 91.4712C112.682 91.7058 112.552 91.9601 112.311 91.9992L77.5749 100.897C77.5378 100.936 77.5006 100.936 77.4821 100.936Z" fill="white"/>
<path d="M77.4821 100.936C77.2594 100.936 77.0739 100.76 77.0553 100.525C77.0368 100.271 77.2037 100.056 77.445 100.037L114.556 96.5752C114.779 96.5361 115.001 96.7316 115.02 96.9858C115.039 97.2401 114.872 97.4552 114.63 97.4747L77.5192 100.936C77.5006 100.936 77.4821 100.936 77.4821 100.936Z" fill="white"/>
</svg>
