<svg width="151" height="174" viewBox="0 0 151 174" fill="none" xmlns="http://www.w3.org/2000/svg">
<path d="M50.5004 151.872C50.4447 151.872 50.3704 151.872 50.3148 151.853C50.0364 151.775 49.7953 151.559 49.7025 151.266L35.5446 107.54L8.95448 67.6271C8.78748 67.3728 8.75042 67.0404 8.8803 66.7666C8.99164 66.4733 9.25137 66.2777 9.5297 66.2386L149.068 45.7835C149.439 45.7248 149.773 45.9204 149.94 46.2724C150.107 46.6048 150.032 47.035 149.791 47.2892L51.1128 151.618C50.9458 151.794 50.7231 151.872 50.5004 151.872ZM11.1255 67.803L36.9919 106.64C37.0476 106.719 37.0847 106.777 37.1032 106.875L50.853 149.369L146.785 47.9346L11.1255 67.803Z" fill="white"/>
<path d="M50.5004 151.872C50.3148 151.872 50.1479 151.814 49.9994 151.696C49.7582 151.501 49.6283 151.188 49.6654 150.856L57.1248 94.907L9.25138 67.8812C8.97305 67.7248 8.78751 67.4119 8.80606 67.0599C8.80606 66.7275 9.01019 66.4146 9.28853 66.2777L43.0968 49.8902L69.6684 1.39235C69.6869 1.35324 69.7054 1.33371 69.724 1.2946C69.7611 1.23593 69.7982 1.19685 69.8539 1.13818C69.9652 1.0404 70.0766 0.981685 70.225 0.962129C70.2436 0.962129 70.2435 0.962129 70.2621 0.962129C70.4291 0.942574 70.5961 0.962146 70.7445 1.04037C70.8559 1.09903 70.9301 1.19682 71.0043 1.2946L98.3366 42.4395L149.142 45.7053C149.439 45.7248 149.698 45.9008 149.828 46.1746C149.958 46.4484 149.958 46.7809 149.81 47.0351L123.257 94.9853L137.656 138.575C137.767 138.888 137.693 139.22 137.489 139.474C137.47 139.513 137.433 139.533 137.396 139.572C137.303 139.65 137.192 139.709 137.081 139.748C137.025 139.767 136.969 139.767 136.914 139.767C136.877 139.767 136.839 139.767 136.802 139.767L84.9024 135.798L50.7603 151.716C50.7417 151.853 50.6117 151.872 50.5004 151.872ZM58.7206 95.8262L51.5581 149.526L84.5128 134.155C84.6427 134.096 84.754 134.077 84.921 134.077L133.073 137.753L58.7206 95.8262ZM58.9618 93.9488L134.965 136.834L70.8558 4.77549L58.9618 93.9488ZM76.7195 12.9302L132.145 127.076L121.624 95.2395C121.55 94.9853 121.568 94.7311 121.698 94.4964L147.75 47.4457L97.9099 44.2386C97.6501 44.219 97.4089 44.0821 97.2605 43.867L76.7195 12.9302ZM11.5524 67.1773L57.3845 93.0493L68.9633 6.28124L44.4328 51.0635C44.34 51.22 44.2101 51.3569 44.0616 51.4351L11.5524 67.1773Z" fill="white"/>
<path d="M79.4101 173.735C79.1317 173.735 78.8719 173.599 78.7049 173.344L61.1513 146.182C60.8916 145.771 60.9843 145.223 61.374 144.95C61.7637 144.676 62.2832 144.774 62.543 145.184L78.8719 170.47L99.7097 25.1133L89.096 30.315C88.6878 30.5106 88.1683 30.3346 87.9827 29.8848C87.7786 29.435 87.9641 28.907 88.3909 28.7115L100.433 22.8253C100.712 22.6884 101.046 22.7275 101.287 22.923C101.528 23.1186 101.658 23.451 101.621 23.7639L80.2264 173.012C80.1707 173.364 79.911 173.657 79.577 173.755C79.5399 173.735 79.4657 173.735 79.4101 173.735Z" fill="white"/>
<path d="M1.12409 129.403C0.901424 129.403 0.697299 129.325 0.530299 129.149C0.251966 128.875 0.196285 128.425 0.400396 128.073L22.5186 87.0653C22.7413 86.635 23.2608 86.4982 23.669 86.7329C24.0772 86.9675 24.2257 87.5151 23.9844 87.9453L3.40639 126.098L35.9158 106.367C52.8013 96.0218 56.7536 93.8902 57.9226 93.5969V93.5577C59.3328 93.0884 78.445 81.5115 91.8421 73.3177L62.4316 60.1373L14.2428 38.0395L21.7763 61.3497C21.9248 61.8191 21.6836 62.3275 21.2568 62.484C20.83 62.6404 20.329 62.3862 20.1806 61.9364L12.0347 36.7293C11.9233 36.3968 12.0162 36.0253 12.2574 35.7907C12.4986 35.556 12.8512 35.4973 13.1666 35.6342L63.0996 58.5337L94.0502 72.3986C94.3471 72.5355 94.5513 72.8288 94.5698 73.1613C94.5884 73.4937 94.4213 73.8262 94.143 73.9827C65.1592 91.7391 59.5555 94.868 58.1824 95.2395V95.2982C56.9949 95.6502 44.4141 103.218 36.7507 107.911L1.55083 129.266C1.40239 129.364 1.25398 129.403 1.12409 129.403Z" fill="white"/>
<path d="M44.3214 132.767C44.3028 132.767 44.2843 132.767 44.2658 132.767L1.06836 129.403C0.604473 129.364 0.251949 128.934 0.28906 128.445C0.326171 127.956 0.71582 127.604 1.19826 127.623L44.3955 130.987C44.8594 131.026 45.2121 131.456 45.175 131.945C45.1378 132.415 44.7667 132.767 44.3214 132.767Z" fill="white"/>
<path d="M50.2221 39.5844C50.2035 39.5844 50.185 39.5844 50.1665 39.5844L12.7398 37.316C12.2759 37.2964 11.9234 36.8662 11.9419 36.3773C11.9605 35.8884 12.3502 35.4973 12.8327 35.5364L50.2592 37.8049C50.7231 37.8244 51.0756 38.2546 51.0571 38.7435C51.0385 39.2324 50.6674 39.5844 50.2221 39.5844Z" fill="white"/>
<path d="M106.575 44.8057C106.204 44.8057 105.87 44.5514 105.759 44.1799L99.9881 23.8812C99.8582 23.4119 100.099 22.9035 100.545 22.7666C100.99 22.6101 101.454 22.8839 101.602 23.3532L107.373 43.6519C107.503 44.1212 107.262 44.6297 106.817 44.7666C106.724 44.8057 106.65 44.8057 106.575 44.8057Z" fill="white"/>
<path d="M128.694 114.815C128.378 114.815 128.081 114.619 127.933 114.306C127.729 113.856 127.914 113.328 128.341 113.113L138.361 108.107L93.2153 73.9239C92.8441 73.6306 92.7514 73.0831 93.0297 72.6919C93.3081 72.2813 93.8276 72.203 94.1988 72.4964L140.513 107.559C140.755 107.735 140.885 108.048 140.866 108.361C140.847 108.674 140.662 108.948 140.384 109.085L129.083 114.736C128.935 114.795 128.823 114.815 128.694 114.815Z" fill="white"/>
<path d="M139.994 109.163C139.716 109.163 139.456 109.026 139.289 108.772L125.929 87.867C125.669 87.4563 125.762 86.9088 126.151 86.6351C126.523 86.3613 127.061 86.459 127.32 86.8697L140.68 107.775C140.94 108.185 140.847 108.733 140.458 109.007C140.328 109.104 140.161 109.163 139.994 109.163Z" fill="white"/>
<path d="M79.4101 173.735C79.2616 173.735 79.1131 173.696 78.9832 173.618C78.575 173.364 78.4451 172.836 78.6678 172.406L98.7263 135.641C98.9675 135.211 99.4685 135.074 99.8768 135.309C100.285 135.563 100.415 136.091 100.192 136.521L80.1336 173.286C79.9852 173.579 79.7069 173.735 79.4101 173.735Z" fill="white"/>
<path d="M32.4458 56.4999C32.3344 56.4999 32.2417 56.4608 32.1489 56.3826L12.4985 36.7488C12.3315 36.5728 12.3131 36.299 12.4801 36.123C12.6471 35.947 12.9069 35.9274 13.0739 36.1034L32.7241 55.7372C32.8911 55.9132 32.9097 56.187 32.7427 56.363C32.6685 56.4608 32.5571 56.4999 32.4458 56.4999Z" fill="white"/>
<path d="M51.5209 61.4279C51.391 61.4279 51.2797 61.3693 51.1869 61.2519L43.3564 50.8874C43.208 50.6919 43.2452 50.4182 43.4307 50.2617C43.6163 50.1053 43.8761 50.1443 44.0245 50.3399L51.8549 60.7044C52.0033 60.8999 51.9663 61.1737 51.7807 61.3302C51.7065 61.3888 51.6137 61.4279 51.5209 61.4279Z" fill="white"/>
<path d="M69.1116 80.3186C68.9261 80.3186 68.7777 80.2013 68.7035 80.0057L62.3203 59.4724C62.2461 59.2377 62.376 58.9835 62.5801 58.9053C62.8028 58.827 63.044 58.9444 63.1182 59.1791L69.39 79.3213L93.5864 72.7506C93.8091 72.6724 94.0503 72.8289 94.106 73.0635C94.1617 73.2982 94.0317 73.5524 93.8091 73.6111L69.2415 80.2795C69.1859 80.3186 69.1487 80.3186 69.1116 80.3186Z" fill="white"/>
<path d="M81.3398 68.1159C81.2099 68.1159 81.0986 68.0572 81.0243 67.9595C80.8759 67.7639 80.8944 67.4901 81.0799 67.3337L96.1285 54.0555C96.314 53.899 96.5738 53.9186 96.7223 54.1141C96.8707 54.3097 96.8522 54.5834 96.6667 54.7399L81.618 68.0181C81.5252 68.0768 81.4325 68.1159 81.3398 68.1159Z" fill="white"/>
<path d="M93.0669 48.9906C92.9556 48.9906 92.8627 48.9514 92.77 48.8732C92.603 48.6972 92.603 48.4235 92.7514 48.2475L97.6872 42.7915C97.8542 42.6155 98.114 42.6155 98.281 42.7719C98.448 42.9479 98.448 43.2217 98.2996 43.3977L93.3452 48.8537C93.2895 48.9515 93.1783 48.9906 93.0669 48.9906Z" fill="white"/>
<path d="M93.0668 36.4359C92.9926 36.4359 92.8998 36.4164 92.8256 36.3577C92.6215 36.2208 92.5844 35.947 92.6957 35.7319L100.433 23.3728C100.563 23.1577 100.823 23.1186 101.027 23.2359C101.231 23.3728 101.268 23.6466 101.157 23.8617L93.4194 36.2208C93.3452 36.3577 93.1967 36.4359 93.0668 36.4359Z" fill="white"/>
<path d="M76.2741 94.8679H58.0526C57.8856 94.8679 57.7371 94.7701 57.6629 94.6137C57.5886 94.4572 57.6072 94.2813 57.7186 94.1444L68.7776 79.595C68.9261 79.3995 69.1858 79.3799 69.3714 79.5168C69.557 79.6732 69.5755 79.947 69.4456 80.1426L58.9246 93.9684H76.0699L93.3637 73.1612C93.5122 72.9852 93.7905 72.9657 93.9575 73.1222C94.1245 73.2786 94.1431 73.5719 93.9947 73.7479L76.571 94.7114C76.4967 94.8288 76.3855 94.8679 76.2741 94.8679Z" fill="white"/>
<path d="M88.2609 111.51C88.131 111.51 88.0012 111.451 87.9269 111.334L75.9216 94.7115C75.7731 94.5159 75.8102 94.2422 75.9957 94.0857C76.1813 93.9293 76.4411 93.9683 76.5895 94.1639L88.5949 110.786C88.7434 110.982 88.7063 111.255 88.5207 111.412C88.4465 111.471 88.3537 111.51 88.2609 111.51Z" fill="white"/>
<path d="M90.9887 92.5604C90.8031 92.5604 90.6175 92.4235 90.5804 92.2279C90.5247 91.9933 90.6546 91.7391 90.8958 91.7L111.548 86.3809C111.771 86.3026 111.994 86.459 112.049 86.7133C112.105 86.9479 111.975 87.2022 111.734 87.2413L91.0814 92.5604C91.0443 92.5604 91.0258 92.5604 90.9887 92.5604Z" fill="white"/>
<path d="M122.44 95.4155H115.612C115.371 95.4155 115.185 95.2199 115.185 94.9657C115.185 94.7115 115.371 94.516 115.612 94.516H122.44C122.681 94.516 122.867 94.7115 122.867 94.9657C122.849 95.2199 122.663 95.4155 122.44 95.4155Z" fill="white"/>
<path d="M139.994 108.713C139.975 108.713 139.957 108.713 139.938 108.713L126.077 106.621C125.854 106.582 125.687 106.367 125.725 106.112C125.762 105.878 125.966 105.702 126.207 105.741L140.068 107.833C140.291 107.872 140.458 108.087 140.421 108.342C140.383 108.557 140.216 108.713 139.994 108.713Z" fill="white"/>
<path d="M36.3239 107.599C36.1755 107.599 36.027 107.501 35.9528 107.364C35.86 107.188 35.8971 106.953 36.0455 106.816L53.0796 91.4457C53.2652 91.2893 53.5249 91.3088 53.6733 91.4848C53.8218 91.6803 53.8033 91.9541 53.6363 92.1106L37.994 106.23L57.0134 100.989C57.2361 100.911 57.4772 101.067 57.5329 101.302C57.5886 101.536 57.4587 101.791 57.2361 101.849L36.4352 107.579C36.3796 107.579 36.361 107.599 36.3239 107.599Z" fill="white"/>
<path d="M1.12407 128.953C0.97563 128.953 0.827163 128.875 0.752941 128.719C0.660163 128.523 0.715843 128.288 0.882843 128.151L33.4292 102.827C33.6148 102.69 33.8746 102.729 34.023 102.925C34.1529 103.12 34.1158 103.394 33.9303 103.551L3.68464 127.056L38.4763 113.856C38.699 113.759 38.9403 113.896 39.0145 114.13C39.0887 114.365 38.9774 114.619 38.7547 114.697L1.25386 128.934C1.21675 128.934 1.16119 128.953 1.12407 128.953Z" fill="white"/>
<path d="M84.8467 135.407C84.6612 135.407 84.4941 135.27 84.4385 135.074L80.3006 119.175C80.2449 118.941 80.3748 118.687 80.5974 118.628C80.8387 118.569 81.0614 118.706 81.117 118.941L85.2549 134.84C85.3106 135.074 85.1807 135.328 84.9581 135.387C84.9209 135.407 84.8838 135.407 84.8467 135.407Z" fill="white"/>
<path d="M79.41 173.305C79.2059 173.305 79.0202 173.149 78.9831 172.934L74.3628 139.748C74.3257 139.513 74.4927 139.279 74.7154 139.239C74.9566 139.22 75.1607 139.376 75.1978 139.611L79.8181 172.797C79.8553 173.031 79.6883 173.266 79.4656 173.305C79.447 173.305 79.4285 173.305 79.41 173.305Z" fill="white"/>
</svg>
