<svg width="135" height="142" viewBox="0 0 135 142" fill="none" xmlns="http://www.w3.org/2000/svg">
<g opacity="0.5">
<path d="M71.49 84.8053C71.205 84.8053 70.95 84.6318 70.845 84.332C70.815 84.2531 70.7849 84.1743 70.7549 84.0954C70.5599 83.5905 70.365 83.1171 70.17 82.6596C69.3 80.6558 68.265 78.7309 67.065 76.9322C66.855 76.6009 66.93 76.1591 67.23 75.9382C67.545 75.7173 67.965 75.7962 68.175 76.1118C69.42 77.9893 70.515 79.9774 71.4 82.06C71.61 82.5334 71.82 83.0383 72 83.5431C72.03 83.622 72.075 83.7324 72.12 83.8587C72.255 84.2373 72.06 84.6476 71.715 84.7738C71.655 84.7896 71.565 84.8053 71.49 84.8053Z" fill="white"/>
<path d="M38.82 135.357C19.065 135.357 3 118.459 3 97.68C3 78.0998 16.95 61.9749 35.46 60.1763C35.475 60.1763 35.49 60.1763 35.505 60.1763C35.55 60.1763 35.595 60.1605 35.64 60.1605C36.015 60.1605 36.315 60.476 36.315 60.8862C36.315 61.2649 36.0301 61.5805 35.6851 61.5962C35.6701 61.5962 35.67 61.5962 35.655 61.5962C35.64 61.5962 35.6101 61.5962 35.5951 61.5962C17.7901 63.316 4.35004 78.8256 4.35004 97.68C4.35004 117.67 19.8 133.922 38.805 133.922C50.025 133.922 60.585 128.131 67.035 118.459C67.065 118.428 67.095 118.38 67.125 118.349C67.5 117.954 68.295 118.254 68.295 118.854C68.295 118.996 68.25 119.122 68.19 119.232C68.175 119.264 68.1451 119.311 68.1151 119.343C61.4251 129.362 50.475 135.357 38.82 135.357Z" fill="white"/>
<path d="M96.42 135.357C84.765 135.357 73.815 129.362 67.11 119.327C67.095 119.296 67.065 119.28 67.05 119.248C66.975 119.138 66.93 118.996 66.93 118.838C66.93 118.238 67.725 117.939 68.085 118.333C68.115 118.365 68.145 118.412 68.175 118.444C74.625 128.131 85.17 133.906 96.405 133.906C115.395 133.906 130.86 117.655 130.86 97.6642C130.86 78.8098 117.42 63.2844 99.585 61.5804C99.57 61.5804 99.5551 61.5804 99.5251 61.5804C99.2401 61.5804 98.985 61.3911 98.88 61.1071C98.76 60.7285 98.94 60.3182 99.3 60.192C99.405 60.1604 99.555 60.1447 99.675 60.1604C99.72 60.1604 99.75 60.1605 99.78 60.1762C118.29 61.9907 132.24 78.0998 132.24 97.68C132.24 118.459 116.175 135.357 96.42 135.357Z" fill="white"/>
<path d="M63.75 84.6949C63.69 84.6949 63.63 84.6791 63.57 84.6633C63.225 84.5371 63 84.2215 63.12 83.8587C63.15 83.764 63.195 83.6693 63.225 83.5747C63.39 83.1013 63.615 82.5807 63.84 82.0442C64.74 79.9773 65.82 77.9735 67.065 76.1118C67.29 75.7804 67.7101 75.7173 68.0101 75.9382C68.3101 76.1591 68.385 76.6167 68.175 76.9322C66.975 78.7309 65.94 80.6558 65.07 82.6438C64.845 83.1487 64.6501 83.6378 64.4551 84.1427C64.3501 84.4582 64.05 84.6949 63.75 84.6949Z" fill="white"/>
<path d="M99.57 61.6751C99.465 61.6751 99.375 61.6594 99.285 61.612C98.94 61.4385 98.805 61.0282 98.955 60.6654L98.9701 60.6496C98.9851 60.5549 99.015 60.5076 99.045 60.4602C101.055 55.7742 102.075 50.7727 102.075 45.566C102.075 25.5756 86.625 9.32446 67.62 9.32446C48.615 9.32446 33.165 25.5756 33.165 45.566C33.165 50.7569 34.185 55.7584 36.195 60.4444C36.21 60.476 36.2251 60.5076 36.2401 60.5391C36.3901 60.8073 36.345 61.1702 36.12 61.3911C35.85 61.6751 35.415 61.6751 35.16 61.3911C35.115 61.3438 35.07 61.2807 35.04 61.2176C35.025 61.186 34.965 61.0756 34.95 61.044C32.85 56.1529 31.8 50.9462 31.8 45.566C31.8 24.7867 47.865 7.88867 67.62 7.88867C87.375 7.88867 103.44 24.7867 103.44 45.566C103.44 51.0093 102.36 56.2476 100.245 61.1545C100.245 61.1702 100.23 61.186 100.23 61.2018C100.215 61.2334 100.215 61.2649 100.2 61.2807C100.065 61.5173 99.825 61.6751 99.57 61.6751ZM36.285 60.6338C36.3 60.6969 36.315 60.7758 36.315 60.8389C36.315 60.76 36.3 60.6969 36.285 60.6338Z" fill="white"/>
<path d="M73.125 82.77C72.945 82.77 72.78 82.7069 72.645 82.5649C72.375 82.2809 72.375 81.8233 72.645 81.5551C72.915 81.2711 73.35 81.2711 73.62 81.5551C73.89 81.8391 73.89 82.2809 73.62 82.5649C73.47 82.7069 73.29 82.77 73.125 82.77Z" fill="white"/>
<path d="M67.62 83.2118C66.525 83.2118 65.4449 83.1645 64.3949 83.054C64.0349 83.0225 63.675 82.9909 63.3 82.9436C62.925 82.8963 62.6549 82.5491 62.6999 82.1547C62.7449 81.7603 63.0749 81.492 63.4499 81.5236C63.7949 81.5709 64.14 81.6025 64.5 81.634C66.54 81.8391 68.7 81.8391 70.725 81.634C71.1 81.6025 71.43 81.8865 71.475 82.2809C71.505 82.6753 71.2349 83.0225 70.8599 83.0698C69.8099 83.1645 68.715 83.2118 67.62 83.2118Z" fill="white"/>
<path d="M67.62 93.2149C67.47 93.2149 67.335 93.1675 67.2 93.0729C66.9 92.8362 66.84 92.3787 67.08 92.0631C68.1 90.6747 68.955 89.16 69.63 87.5822C70.14 86.3674 70.545 85.1367 70.83 83.9218C70.875 83.764 70.905 83.6063 70.935 83.4485C71.025 83.0067 71.115 82.5807 71.175 82.1389C71.37 80.924 71.475 79.6618 71.475 78.3838C71.475 77.8789 71.46 77.3898 71.43 76.8849C71.37 75.8436 71.235 74.8338 71.055 73.8714C70.935 73.256 70.8 72.6564 70.635 72.0727C69.9 69.4062 68.7 66.9291 67.08 64.7045C64.635 61.3596 61.38 58.8036 57.645 57.3205C55.23 56.358 52.695 55.8847 50.1 55.8847C44.97 55.8847 39.99 57.8253 36.105 61.3753C36.09 61.3911 36.06 61.4227 36.045 61.4385C35.775 61.7225 35.34 61.7225 35.07 61.4385C34.8 61.1545 34.8 60.7127 35.07 60.4287C35.1 60.3971 35.175 60.334 35.22 60.3025C39.45 56.5 44.685 54.4647 50.115 54.4647C52.875 54.4647 55.575 54.9853 58.14 55.9951C62.115 57.5729 65.58 60.2867 68.175 63.8525C69.9 66.2191 71.175 68.854 71.955 71.694C72.135 72.3251 72.285 72.9562 72.405 73.6031C72.6 74.6287 72.735 75.7016 72.81 76.806C72.84 77.3267 72.855 77.8631 72.855 78.3996C72.855 79.7565 72.75 81.0976 72.54 82.3756C72.48 82.8331 72.375 83.3064 72.285 83.764C72.255 83.9376 72.21 84.1111 72.165 84.2847C71.865 85.5627 71.43 86.888 70.89 88.166C70.17 89.8542 69.255 91.4636 68.175 92.9309C68.025 93.1044 67.83 93.2149 67.62 93.2149Z" fill="white"/>
<path d="M67.62 119.58C67.245 119.58 66.93 119.264 66.93 118.854V92.7258C65.895 91.29 65.025 89.728 64.335 88.0871C63.81 86.8565 63.39 85.5627 63.075 84.2531C63.045 84.1742 63.015 84.0323 62.985 83.8903C62.865 83.4169 62.7601 82.8805 62.6851 82.344C62.4751 81.0818 62.37 79.7407 62.37 78.3838C62.37 77.8473 62.385 77.3109 62.415 76.7903C62.49 75.67 62.625 74.5971 62.82 73.5874C62.955 72.9405 63.09 72.2936 63.27 71.6625C64.05 68.8225 65.325 66.1876 67.05 63.8209C69.615 60.3025 73.035 57.6045 76.95 56.0109C79.56 54.9538 82.305 54.4331 85.11 54.4331C90.54 54.4331 95.805 56.4842 99.93 60.2078C100.005 60.2551 100.095 60.3498 100.14 60.4287C100.395 60.7285 100.365 61.1702 100.08 61.4385C99.795 61.7067 99.36 61.6751 99.12 61.3753C95.175 57.8096 90.225 55.8847 85.11 55.8847C82.47 55.8847 79.89 56.3896 77.43 57.3678C73.755 58.8509 70.53 61.3911 68.13 64.7045C66.51 66.9291 65.31 69.4062 64.575 72.0727C64.41 72.6722 64.275 73.2718 64.155 73.8714C63.975 74.818 63.84 75.8436 63.765 76.8849C63.735 77.374 63.7201 77.8789 63.7201 78.3838C63.7201 79.6618 63.825 80.9083 64.02 82.1231C64.095 82.628 64.2 83.1171 64.305 83.5905C64.32 83.7009 64.3351 83.7798 64.3651 83.8587C64.6801 85.1524 65.07 86.3673 65.565 87.5191C66.24 89.1285 67.095 90.6431 68.13 92.0631C68.22 92.1894 68.265 92.3471 68.265 92.5049V118.87C68.295 119.248 67.995 119.58 67.62 119.58Z" fill="white"/>
<path d="M67.635 119.58C67.26 119.58 66.945 119.264 66.945 118.854C66.945 118.522 67.155 118.238 67.44 118.16C74.76 115.651 80.25 109.182 81.78 101.262C82.065 99.81 82.215 98.2954 82.215 96.7649C82.215 94.1931 81.81 91.6845 81 89.2705C80.055 86.4305 78.585 83.8587 76.635 81.6024C76.08 80.9556 75.48 80.3403 74.835 79.7565C74.55 79.4883 74.5201 79.0465 74.7751 78.7467C75.0301 78.4469 75.465 78.4153 75.735 78.6836C76.41 79.2989 77.055 79.9616 77.64 80.64C79.71 83.0225 81.2701 85.7678 82.2751 88.7971C83.1301 91.3531 83.565 94.0354 83.565 96.7649C83.565 98.39 83.415 99.9993 83.1 101.561C81.48 109.955 75.66 116.834 67.905 119.516C67.83 119.564 67.74 119.58 67.635 119.58Z" fill="white"/>
<path d="M67.62 75.4018C67.545 75.4018 67.485 75.386 67.41 75.3702C66.87 75.1809 66.3301 75.0231 65.7751 74.8811C65.0251 74.6918 64.2451 74.5498 63.4201 74.4393C61.3951 74.1869 59.2651 74.2342 57.3301 74.5656C56.9701 74.6445 56.61 74.3762 56.55 73.9818C56.49 73.5874 56.73 73.2244 57.105 73.1613C59.175 72.7827 61.4401 72.7353 63.6001 73.0193C64.4701 73.1298 65.31 73.2876 66.105 73.4927C66.69 73.6347 67.2601 73.8082 67.8301 73.9975C68.1901 74.1238 68.385 74.5182 68.265 74.8969C68.175 75.2124 67.905 75.4018 67.62 75.4018Z" fill="white"/>
<path d="M67.635 119.58C67.53 119.58 67.4401 119.564 67.3651 119.516C59.5951 116.85 53.775 109.971 52.14 101.561C51.84 99.9993 51.69 98.39 51.69 96.7649C51.69 94.0511 52.125 91.3689 52.965 88.8287C53.985 85.7836 55.5601 83.0382 57.6151 80.6558C58.2001 79.9773 58.815 79.362 59.415 78.7782C60.435 77.8315 61.575 76.9638 62.76 76.2065C63.075 76.0014 63.51 76.1118 63.69 76.4589C63.885 76.806 63.78 77.2478 63.45 77.4371C62.325 78.1471 61.26 78.9518 60.3 79.8511C59.73 80.3876 59.145 80.9871 58.59 81.6182C56.655 83.8587 55.185 86.4462 54.225 89.302C53.43 91.7002 53.0251 94.2089 53.0251 96.7649C53.0251 98.2954 53.175 99.81 53.46 101.262C54.99 109.182 60.495 115.667 67.815 118.16C67.935 118.191 68.0251 118.27 68.1151 118.365C68.2351 118.491 68.3101 118.664 68.3101 118.854C68.3101 119.264 68.01 119.58 67.635 119.58Z" fill="white"/>
<path d="M67.62 75.4018C67.335 75.4018 67.0651 75.2125 66.9751 74.8969C66.8551 74.5182 67.065 74.108 67.425 73.9976C67.995 73.8082 68.5651 73.6347 69.1501 73.4927C69.9451 73.2876 70.7851 73.1298 71.6551 73.0194C73.7551 72.7511 75.945 72.7827 78 73.1298C78.375 73.1929 78.63 73.5558 78.57 73.9502C78.51 74.3447 78.15 74.6129 77.79 74.5498C75.855 74.2342 73.8 74.1869 71.82 74.4393C71.01 74.5498 70.215 74.6918 69.48 74.8811C68.925 75.0231 68.3851 75.1809 67.8451 75.3703C67.7551 75.3861 67.695 75.4018 67.62 75.4018Z" fill="white"/>
<path d="M57.0601 90.0751C55.8451 90.0751 54.66 89.9805 53.505 89.7911C49.305 89.0969 45.375 87.172 42.135 84.2216C37.155 79.6618 34.29 73.0667 34.29 66.1403C34.29 64.3258 34.485 62.5272 34.86 60.7758C34.86 60.76 34.86 60.7442 34.875 60.7284C34.905 60.6022 34.965 60.476 35.055 60.3971L35.385 60.7442H35.565L36.225 60.9336C36.225 60.9493 36.21 60.9809 36.21 60.9967C36.21 61.0282 36.21 61.0598 36.195 61.0913C35.835 62.7322 35.655 64.4205 35.655 66.1403C35.655 72.6565 38.34 78.8571 43.02 83.1329C46.065 85.9098 49.755 87.7085 53.7 88.3711C56.445 88.8287 59.43 88.7025 62.175 87.9925C63.015 87.7716 63.855 87.5033 64.725 87.1562C65.07 87.0142 65.475 87.2036 65.61 87.5665C65.745 87.9293 65.5651 88.3553 65.2201 88.4973C64.2901 88.876 63.405 89.16 62.505 89.3967C60.75 89.8385 58.9051 90.0751 57.0601 90.0751Z" fill="white"/>
<path d="M78.045 90.0751C76.245 90.0751 74.475 89.8542 72.75 89.4125C71.85 89.1916 70.935 88.8918 70.02 88.5447C69.66 88.4027 69.48 87.9924 69.615 87.6138C69.75 87.2351 70.14 87.0458 70.5 87.1878C71.355 87.5191 72.225 87.8031 73.065 88.0082C75.84 88.7182 78.855 88.8129 81.51 88.3395C85.455 87.6611 89.13 85.8309 92.16 83.054C96.78 78.7782 99.435 72.6091 99.435 66.1402C99.435 64.452 99.255 62.7638 98.895 61.1229C98.895 61.1071 98.895 61.1071 98.895 61.0913C98.88 61.0598 98.88 61.0124 98.865 60.9809C98.73 60.618 98.9099 60.2078 99.2549 60.0658C99.6149 59.9238 100.005 60.1289 100.14 60.4918C100.155 60.5233 100.185 60.6338 100.2 60.7127C100.2 60.7442 100.215 60.7758 100.215 60.8073C100.59 62.5429 100.785 64.3416 100.785 66.1402C100.785 73.0194 97.965 79.5829 93.045 84.1427C89.82 87.1089 85.905 89.0495 81.72 89.7753C80.565 89.9647 79.32 90.0751 78.045 90.0751Z" fill="white"/>
<path d="M71.385 84.5056C71.205 84.5056 71.01 84.4267 70.89 84.2689C70.635 83.9849 70.65 83.5274 70.935 83.2592C71.01 83.196 71.07 83.1329 71.145 83.0698C71.685 82.5807 72.1649 82.0758 72.6299 81.5551C73.3949 80.7031 74.085 79.788 74.715 78.8256C75.78 77.2004 76.62 75.4334 77.25 73.5874C77.31 73.4296 77.415 73.2876 77.55 73.2087L99.21 60.2551C99.525 60.0658 99.96 60.1763 100.14 60.5234C100.32 60.8705 100.215 61.3122 99.885 61.5016L78.45 74.3289C77.805 76.2065 76.92 77.9894 75.855 79.646C75.18 80.6716 74.445 81.6498 73.635 82.5491C73.125 83.1171 72.615 83.6378 72.075 84.1427L71.865 84.332C71.715 84.4425 71.55 84.5056 71.385 84.5056Z" fill="white"/>
<path d="M63.75 84.5845C63.645 84.5845 63.525 84.5529 63.42 84.4582C63.405 84.4424 63.285 84.332 63.27 84.3162C62.64 83.7482 62.04 83.1487 61.455 82.5018C60.705 81.6656 59.985 80.7189 59.31 79.7249C58.215 78.0682 57.33 76.2538 56.67 74.3446L35.205 61.5016C34.875 61.3122 34.77 60.8705 34.95 60.5233C35.13 60.1762 35.55 60.05 35.88 60.2551L57.555 73.2244C57.705 73.3033 57.81 73.4453 57.855 73.6031C58.485 75.4806 59.355 77.2635 60.42 78.8887C61.05 79.8353 61.725 80.7189 62.43 81.5078C62.985 82.1231 63.54 82.6911 64.11 83.196C64.395 83.4484 64.5 83.9533 64.275 84.2531C64.14 84.474 63.945 84.5845 63.75 84.5845Z" fill="white"/>
<path d="M10.02 119.217C9.91498 119.217 9.79498 119.154 9.73498 119.059C9.62998 118.885 9.67499 118.664 9.83999 118.57L53.43 88.7814C53.58 88.6709 53.805 88.7182 53.895 88.8918C54 89.0653 53.955 89.2862 53.79 89.3809L10.2 119.169C10.155 119.201 10.08 119.217 10.02 119.217Z" fill="white"/>
<path d="M67.62 64.6256C67.425 64.6256 67.2751 64.4678 67.2751 64.2627V8.5829C67.2751 8.37779 67.425 8.21999 67.62 8.21999C67.815 8.21999 67.965 8.37779 67.965 8.5829V64.2627C67.965 64.4678 67.815 64.6256 67.62 64.6256Z" fill="white"/>
<path d="M125.22 119.217C125.16 119.217 125.085 119.201 125.04 119.154L81.4351 89.3494C81.2701 89.2389 81.225 89.018 81.33 88.8602C81.435 88.6867 81.645 88.6551 81.795 88.7498L125.4 118.57C125.565 118.68 125.61 118.901 125.505 119.059C125.445 119.169 125.34 119.217 125.22 119.217Z" fill="white"/>
</g>
</svg>
