<svg width="167" height="176" viewBox="0 0 167 176" fill="none" xmlns="http://www.w3.org/2000/svg">
<path d="M83.0985 34.9654C82.6346 34.9654 82.2636 34.5742 82.2636 34.0658V8.7218C82.2636 8.23292 82.6346 7.82227 83.0985 7.82227C83.5624 7.82227 83.9521 8.21336 83.9521 8.7218V34.0658C83.9521 34.5547 83.5624 34.9654 83.0985 34.9654Z" fill="white"/>
<path d="M83.0985 138.317C82.6346 138.317 82.2636 137.925 82.2636 137.417V119.172C82.2636 118.683 82.6346 118.272 83.0985 118.272C83.5624 118.272 83.9521 118.663 83.9521 119.172V137.417C83.9521 137.925 83.5624 138.317 83.0985 138.317Z" fill="white"/>
<path d="M34.5572 167.063C34.3902 167.063 34.2046 167.004 34.0562 166.887C33.685 166.594 33.5923 166.046 33.8706 165.636L48.01 145.141C48.2883 144.75 48.8079 144.652 49.1975 144.946C49.5687 145.239 49.6614 145.787 49.3831 146.197L35.2437 166.692C35.0767 166.926 34.817 167.063 34.5572 167.063Z" fill="white"/>
<path d="M131.64 167.063C131.38 167.063 131.12 166.926 130.953 166.692L116.814 146.197C116.536 145.806 116.628 145.239 117 144.946C117.371 144.652 117.909 144.75 118.187 145.141L132.326 165.636C132.605 166.027 132.512 166.594 132.141 166.887C131.992 167.004 131.807 167.063 131.64 167.063Z" fill="white"/>
<path d="M138.765 77.5965C138.413 77.5965 138.079 77.3618 137.967 76.9903C137.819 76.5209 138.06 76.0125 138.505 75.8756L161.384 68.0339C161.83 67.8774 162.312 68.1316 162.442 68.6009C162.59 69.0703 162.349 69.5787 161.904 69.7156L139.025 77.5574C138.932 77.577 138.858 77.5965 138.765 77.5965Z" fill="white"/>
<path d="M45.5048 109.531C45.1523 109.531 44.8183 109.296 44.707 108.925C44.5585 108.455 44.7998 107.947 45.2452 107.81L61.7039 102.178C62.1493 102.021 62.6317 102.276 62.7616 102.745C62.91 103.214 62.6687 103.723 62.2234 103.86L45.7646 109.492C45.6904 109.511 45.5976 109.531 45.5048 109.531Z" fill="white"/>
<path d="M70.0354 77.7138C69.7756 77.7138 69.5159 77.5769 69.3489 77.3422L59.1804 62.5778C58.9021 62.1867 58.9948 61.6196 59.366 61.3262C59.7371 61.0329 60.2752 61.1307 60.5535 61.5218L70.722 76.2863C71.0003 76.6774 70.9076 77.2445 70.5364 77.5378C70.388 77.6551 70.2024 77.7138 70.0354 77.7138Z" fill="white"/>
<path d="M96.1617 77.7138C95.9947 77.7138 95.8091 77.6551 95.6606 77.5378C95.2895 77.2445 95.1968 76.6969 95.4751 76.2863L105.644 61.5218C105.922 61.1307 106.441 61.0329 106.831 61.3262C107.202 61.6196 107.295 62.1671 107.017 62.5778L96.8482 77.3422C96.6812 77.5769 96.4214 77.7138 96.1617 77.7138Z" fill="white"/>
<path d="M120.692 109.531C120.599 109.531 120.525 109.511 120.432 109.492L103.973 103.86C103.528 103.703 103.287 103.214 103.435 102.745C103.584 102.276 104.066 102.021 104.493 102.178L120.952 107.81C121.397 107.966 121.638 108.455 121.49 108.925C121.379 109.296 121.045 109.531 120.692 109.531Z" fill="white"/>
<path d="M27.4317 77.5965C27.339 77.5965 27.2648 77.577 27.1721 77.5574L4.29303 69.7156C3.84769 69.5592 3.6064 69.0703 3.75484 68.6009C3.90329 68.1316 4.36719 67.8774 4.81252 68.0339L27.6916 75.8756C28.1369 76.032 28.3781 76.5209 28.2296 76.9903C28.1183 77.3618 27.8029 77.5965 27.4317 77.5965Z" fill="white"/>
<path d="M83.0984 120.071C82.9314 120.071 82.746 120.012 82.5975 119.895L61.4627 103.723C61.1658 103.488 61.036 103.097 61.1473 102.725L69.2189 76.5405C69.3303 76.1689 69.6642 75.9342 70.0168 75.9342H96.1431C96.5142 75.9342 96.8296 76.1885 96.9409 76.5405L105.013 102.725C105.124 103.097 104.994 103.488 104.697 103.723L83.5623 119.895C83.451 120.012 83.284 120.071 83.0984 120.071ZM62.9471 102.667L83.0984 118.076L103.25 102.667L95.5493 77.7138H70.6477L62.9471 102.667Z" fill="white"/>
<path d="M131.64 167.063H34.5572C34.1861 167.063 33.8706 166.809 33.7593 166.457L3.75485 69.168C3.64352 68.7965 3.77349 68.4054 4.07038 68.1707L82.5975 8.03736C82.8944 7.80269 83.3026 7.80269 83.5995 8.03736L162.145 68.1707C162.442 68.4054 162.572 68.7965 162.461 69.168L132.456 166.457C132.326 166.809 132.011 167.063 131.64 167.063ZM35.188 165.284H131.027L160.642 69.2071L83.0984 9.83649L5.5548 69.2071L35.188 165.284Z" fill="white"/>
<path d="M117.501 146.569C117.445 146.569 117.371 146.569 117.315 146.549L83.0985 138.356L48.882 146.549C48.6408 146.608 48.3996 146.549 48.1955 146.393C47.9914 146.236 47.88 146.002 47.8429 145.748L44.67 108.925L26.7082 77.1663C26.5783 76.9512 26.5597 76.6774 26.6339 76.4427C26.7082 76.1885 26.8752 75.9929 27.0978 75.8952L59.3474 61.3262L82.4491 33.4987C82.7645 33.1076 83.3954 33.1076 83.7294 33.4987L106.831 61.3262L139.081 75.8952C139.303 75.9929 139.47 76.1885 139.545 76.4427C139.619 76.6969 139.6 76.9512 139.47 77.1663L121.508 108.925L118.335 145.748C118.317 146.002 118.187 146.236 117.983 146.393C117.853 146.51 117.686 146.569 117.501 146.569ZM83.0985 136.537C83.1541 136.537 83.2284 136.537 83.2841 136.556L116.74 144.574L119.839 108.553C119.857 108.416 119.894 108.299 119.95 108.181L137.522 77.1076L105.978 62.8712C105.866 62.8125 105.755 62.7343 105.681 62.6365L83.0799 35.4151L60.4792 62.6365C60.405 62.7343 60.2937 62.8125 60.1824 62.8712L28.638 77.1076L46.21 108.181C46.2842 108.299 46.3214 108.416 46.3214 108.553L49.4202 144.574L82.8758 136.556C82.9686 136.537 83.0428 136.537 83.0985 136.537Z" fill="white"/>
<path d="M46.5811 149.17C46.3955 149.17 46.2286 149.033 46.1729 148.837L27.0236 76.8143C26.9679 76.5796 27.0977 76.3254 27.3204 76.2667C27.5431 76.1885 27.7844 76.3449 27.84 76.5796L46.9894 148.603C47.045 148.837 46.9151 149.092 46.6924 149.15C46.6553 149.17 46.6182 149.17 46.5811 149.17Z" fill="white"/>
<path d="M41.9794 155.877C41.7753 155.877 41.6083 155.721 41.5711 155.525L27.0422 76.8142C27.0051 76.5796 27.1535 76.3449 27.3762 76.2863C27.636 76.2276 27.8215 76.4036 27.8771 76.6382L42.4062 155.349C42.4433 155.584 42.2948 155.819 42.0722 155.877C42.0165 155.877 41.998 155.877 41.9794 155.877Z" fill="white"/>
<path d="M37.0065 163.054C36.8024 163.054 36.6168 162.898 36.5796 162.663L27.005 76.7556C26.9865 76.5014 27.1349 76.2862 27.3762 76.2667C27.5988 76.208 27.8215 76.4232 27.8401 76.6578L37.4147 162.565C37.4332 162.82 37.2848 163.035 37.0435 163.054C37.0435 163.054 37.0251 163.054 37.0065 163.054Z" fill="white"/>
<path d="M29.6585 150.715C29.4358 150.715 29.2503 150.519 29.2317 150.284L27.0051 76.7165C27.0051 76.4623 27.172 76.2667 27.4132 76.2667C27.4132 76.2667 27.4132 76.2667 27.4318 76.2667C27.6545 76.2667 27.8401 76.4623 27.8587 76.6969L30.0852 150.265C30.1038 150.519 29.9183 150.715 29.6585 150.715C29.677 150.715 29.677 150.715 29.6585 150.715Z" fill="white"/>
<path d="M23.4981 130.709C23.4795 130.709 23.4796 130.709 23.461 130.709C23.2198 130.69 23.0528 130.475 23.0713 130.24L27.0237 76.6969C27.0422 76.4427 27.2463 76.2472 27.469 76.2863C27.7102 76.3058 27.8773 76.5209 27.8587 76.7556L23.9064 130.299C23.9064 130.533 23.7207 130.709 23.4981 130.709Z" fill="white"/>
<path d="M19.6942 118.37C19.6756 118.37 19.6386 118.37 19.62 118.37C19.3973 118.331 19.2489 118.096 19.286 117.842L25.9474 82.4071L17.0779 108.299C17.0037 108.533 16.7624 108.651 16.5397 108.572C16.317 108.494 16.2057 108.24 16.2799 108.005L27.0422 76.56C27.1164 76.3449 27.339 76.2276 27.5431 76.2863C27.7658 76.345 27.8958 76.5796 27.8401 76.7947L20.0839 118.018C20.0653 118.213 19.8797 118.37 19.6942 118.37Z" fill="white"/>
<path d="M14.109 100.281C14.0347 100.281 13.9605 100.261 13.8863 100.222C13.6822 100.085 13.6265 99.8311 13.7378 99.616L25.5577 79.1023L11.9194 92.1458C11.7524 92.3022 11.4741 92.3023 11.3256 92.1067C11.1772 91.9307 11.1772 91.6374 11.3628 91.4809L27.1536 76.3644C27.3206 76.208 27.5432 76.208 27.7102 76.3449C27.8772 76.4818 27.9143 76.736 27.803 76.912L14.4801 100.046C14.3873 100.203 14.2574 100.281 14.109 100.281Z" fill="white"/>
<path d="M9.61851 85.6925C9.45151 85.6925 9.30302 85.5947 9.2288 85.4382C9.13602 85.2036 9.22889 84.9493 9.433 84.8515L25.335 77.2249L7.16916 77.792C7.16916 77.792 7.16914 77.792 7.15059 77.792C6.92792 77.792 6.7424 77.5965 6.72385 77.3618C6.72385 77.1076 6.89079 76.912 7.13201 76.912L27.3948 76.2667C27.5618 76.2471 27.7658 76.4036 27.8215 76.6187C27.8586 76.8338 27.7658 77.0294 27.5803 77.1271L9.76698 85.6729C9.72987 85.6925 9.67417 85.6925 9.61851 85.6925Z" fill="white"/>
<path d="M47.4719 131.785C47.3049 131.785 47.1378 131.668 47.0822 131.492L27.0608 76.8729C26.968 76.6383 27.0792 76.384 27.3019 76.3058C27.5245 76.208 27.7658 76.3254 27.8401 76.5601L47.8615 131.179C47.9542 131.413 47.8429 131.668 47.6202 131.746C47.5646 131.765 47.509 131.785 47.4719 131.785Z" fill="white"/>
</svg>
