<svg width="167" height="176" viewBox="0 0 167 176" fill="none" xmlns="http://www.w3.org/2000/svg">
<path d="M103.162 169.257C103.107 169.257 103.069 169.257 103.014 169.238L56.9403 160.692C56.7362 160.653 56.5507 160.535 56.4208 160.359L31.4635 125.726L1.96022 69.6411C1.84889 69.426 1.83032 69.1913 1.88598 68.9566L11.7019 32.7593C11.7576 32.5442 11.8874 32.3682 12.0544 32.2509L47.9038 7.96286C48.0522 7.86508 48.2192 7.80646 48.3677 7.82601L112.162 9.17535C112.236 9.17535 112.31 9.19489 112.384 9.21444L151.221 21.5736C151.499 21.6518 151.704 21.8865 151.796 22.1798L163.319 64.9087C163.375 65.1238 163.356 65.3584 163.264 65.554L142.147 109.163L116.3 154.414L103.83 168.944C103.626 169.159 103.403 169.257 103.162 169.257ZM57.5526 159.01L102.847 167.399L114.908 153.378L140.626 108.322L161.575 65.0651L150.275 23.1576L111.995 10.9744L48.5718 9.62509L13.2049 33.5806L3.57455 69.1131L32.8552 124.768L57.5526 159.01Z" fill="white"/>
<path d="M44.9164 60.6651C44.7308 60.6651 44.5452 60.6065 44.3968 60.4696L11.9617 33.7176C11.5906 33.4047 11.5349 32.8571 11.8132 32.466C12.1101 32.0749 12.6297 32.0162 13.0008 32.3096L45.139 58.8269L100.787 49.0882L111.308 9.84027C111.438 9.37093 111.902 9.09716 112.347 9.23405C112.793 9.37094 113.052 9.85982 112.922 10.3292L102.272 50.1247C102.179 50.4571 101.919 50.7114 101.604 50.77L45.0648 60.6651C45.0092 60.6651 44.9535 60.6651 44.9164 60.6651Z" fill="white"/>
<path d="M141.35 109.671C141.09 109.671 140.83 109.534 140.663 109.3L100.769 50.3984C100.49 50.0073 100.583 49.4402 100.973 49.1664C101.344 48.8731 101.882 48.9709 102.142 49.3816L142.036 108.283C142.314 108.694 142.222 109.241 141.832 109.515C141.684 109.632 141.517 109.671 141.35 109.671Z" fill="white"/>
<path d="M115.539 154.864C115.39 154.864 115.242 154.825 115.112 154.747L70.5231 127.31C70.3561 127.213 70.2447 127.056 70.1705 126.88L44.1371 60.098C43.9515 59.6482 44.1742 59.1202 44.601 58.9442C45.0277 58.7487 45.5287 58.9834 45.6957 59.4331L71.6178 125.922L115.966 153.202C116.374 153.456 116.504 154.004 116.262 154.414C116.114 154.708 115.817 154.864 115.539 154.864Z" fill="white"/>
<path d="M70.9498 127.447H70.9312L32.0944 126.098C31.6305 126.078 31.2594 125.668 31.278 125.179C31.2965 124.69 31.6676 124.318 32.1501 124.318L70.9869 125.668C71.4508 125.687 71.8219 126.098 71.8033 126.587C71.7662 127.056 71.3951 127.447 70.9498 127.447Z" fill="white"/>
<path d="M121.402 45.1576H121.384L58.5547 41.794C58.3877 41.794 58.2392 41.6571 58.1835 41.4811L47.9409 8.88201C47.8667 8.64734 47.9965 8.39316 48.2006 8.31494C48.4233 8.23672 48.6645 8.35402 48.7388 8.58869L58.8887 40.8945L121.291 44.2385L150.72 22.0625C150.906 21.9256 151.165 21.9647 151.314 22.1602C151.444 22.3558 151.407 22.6492 151.221 22.786L121.681 45.0403C121.569 45.1185 121.495 45.1576 121.402 45.1576Z" fill="white"/>
<path d="M22.093 90.5264C21.9817 90.5264 21.8703 90.4874 21.7961 90.3896L2.38703 69.5238C2.22003 69.3478 2.22003 69.074 2.38703 68.898C2.55403 68.722 2.81376 68.722 2.98076 68.898L22.0559 89.4118L58.2392 41.0509C58.3876 40.8554 58.6474 40.8162 58.833 40.9727C59.0185 41.1291 59.0557 41.4029 58.9072 41.5985L22.427 90.3505C22.3528 90.4482 22.2414 90.5069 22.1115 90.5264C22.093 90.5264 22.093 90.5264 22.093 90.5264Z" fill="white"/>
<path d="M57.0703 160.262C56.9033 160.262 56.7548 160.164 56.6806 159.988L45.5844 132.102L21.7219 90.3113C21.6106 90.0962 21.6663 89.8224 21.8704 89.7051C22.0745 89.5878 22.3343 89.6464 22.4456 89.8615L46.3451 131.71L57.4599 159.655C57.5527 159.89 57.4414 160.144 57.2373 160.242C57.1816 160.262 57.1259 160.262 57.0703 160.262Z" fill="white"/>
<path d="M125.559 119.117C125.503 119.117 125.466 119.117 125.41 119.078L92.7711 105.819C92.6598 105.78 92.567 105.682 92.5299 105.565C92.4928 105.447 92.4928 105.31 92.5485 105.213L121.031 44.5122C121.143 44.2971 121.384 44.1994 121.588 44.3167C121.792 44.434 121.885 44.6882 121.773 44.9034L93.4947 105.174L125.41 118.139L162.132 64.9087C162.262 64.7132 162.54 64.6545 162.726 64.8109C162.911 64.9478 162.948 65.2411 162.818 65.4367L125.911 118.941C125.819 119.058 125.689 119.117 125.559 119.117Z" fill="white"/>
<path d="M103.162 168.807C103.107 168.807 103.032 168.788 102.977 168.768C102.773 168.67 102.68 168.397 102.773 168.182L125.169 118.491C125.262 118.276 125.522 118.178 125.726 118.276C125.93 118.374 126.023 118.647 125.93 118.862L103.533 168.553C103.478 168.729 103.311 168.807 103.162 168.807Z" fill="white"/>
<path d="M45.974 132.395C45.8256 132.395 45.6771 132.317 45.6029 132.16C45.4916 131.945 45.5658 131.671 45.7699 131.554L92.6969 105.017C92.901 104.9 93.1608 104.978 93.2721 105.193C93.3835 105.408 93.3092 105.682 93.1051 105.799L46.1781 132.336C46.1224 132.375 46.0483 132.395 45.974 132.395Z" fill="white"/>
</svg>
