<svg width="157" height="139" viewBox="0 0 157 139" fill="none" xmlns="http://www.w3.org/2000/svg">
<path d="M95.4807 138.286C95.258 138.286 95.0353 138.188 94.8683 138.012L81.8794 123.326L5.8573 104.827C5.46763 104.729 5.18929 104.338 5.20784 103.907L8.08399 43.1483L0.587526 4.81945C0.53186 4.56522 0.58752 4.29144 0.75452 4.09589C0.902964 3.88078 1.14418 3.76345 1.3854 3.76345L38.8306 2.59012L85.3864 0.556335L85.8132 0.575895L100.324 1.2799H141.35L156.12 2.15989C156.436 2.17945 156.714 2.37501 156.844 2.66834C156.974 2.96167 156.937 3.31367 156.751 3.58745L130.254 40.1172V93.9928C130.254 94.1101 130.235 94.2274 130.18 94.3448L120.679 117.518C120.623 117.655 120.531 117.772 120.419 117.87L95.9816 138.091C95.8518 138.227 95.6662 138.286 95.4807 138.286ZM95.5734 136.194L119.232 116.619L128.565 93.8363V39.8239C128.565 39.6283 128.621 39.4328 128.732 39.2763L154.432 3.82211L141.294 3.03988H100.268L86.1101 2.35544L32.0763 64.4443L95.5734 136.194ZM6.91498 103.262L79.8198 120.999L30.3321 65.0506C30.0352 64.7181 30.0352 64.1901 30.3321 63.8381L83.8278 2.39456L38.8862 4.35012L2.44308 5.48433L9.75398 42.8941C9.77253 42.9723 9.77255 43.0506 9.77255 43.1092L6.91498 103.262Z" fill="white"/>
<path d="M95.4807 138.286C95.0539 138.286 94.7013 137.954 94.6457 137.504L85.6834 63.7599L84.9226 1.45589C84.9226 0.967 85.2936 0.556335 85.7575 0.556335C86.1286 0.536779 86.6111 0.94744 86.6111 1.43633L87.3533 63.6426L96.2971 137.289C96.3528 137.778 96.0373 138.227 95.5734 138.286C95.5549 138.286 95.5178 138.286 95.4807 138.286Z" fill="white"/>
<path d="M38.9047 56.1919C38.812 56.1919 38.7006 56.1723 38.6079 56.1332L8.62213 43.911C8.19535 43.735 7.97266 43.2266 8.13966 42.7572C8.30666 42.3074 8.80766 42.0728 9.23444 42.2488L39.2202 54.471C39.647 54.647 39.8697 55.1555 39.7027 55.6248C39.5542 55.9768 39.2387 56.1919 38.9047 56.1919Z" fill="white"/>
<path d="M42.2262 113.646C41.8365 113.646 41.5025 113.372 41.4097 112.962L30.128 64.6399C30.0167 64.1706 30.295 63.6817 30.7403 63.5643C31.1856 63.447 31.6496 63.7403 31.7609 64.2097L43.0426 112.531C43.154 113.001 42.8757 113.49 42.4303 113.607C42.3561 113.646 42.3004 113.646 42.2262 113.646Z" fill="white"/>
<path d="M58.2768 33.9181C57.9984 33.9181 57.7386 33.7812 57.5716 33.5074L39.2388 3.88078C38.979 3.47011 39.0903 2.92256 39.48 2.64878C39.8696 2.375 40.3892 2.49233 40.649 2.903L58.9819 32.5297C59.2417 32.9403 59.1303 33.4879 58.7406 33.7617C58.5922 33.879 58.4252 33.9181 58.2768 33.9181Z" fill="white"/>
<path d="M86.5183 64.5421C86.1472 64.5421 85.7946 64.2879 85.7019 63.8772C85.572 63.4079 85.8503 62.919 86.2957 62.7821L110.752 55.9181L128.844 39.1395C129.196 38.807 129.734 38.8461 130.031 39.2177C130.347 39.5892 130.309 40.1563 129.957 40.4692L111.717 57.3848C111.624 57.4826 111.494 57.5412 111.383 57.5803L86.741 64.503C86.6667 64.5421 86.5925 64.5421 86.5183 64.5421Z" fill="white"/>
<path d="M119.9 118.066C119.492 118.066 119.12 117.753 119.065 117.303L110.325 56.8763C110.307 56.7199 110.325 56.5439 110.381 56.407L117.655 38.103L108.117 40.1368C107.672 40.215 107.208 39.9217 107.115 39.4328C107.022 38.9439 107.319 38.4746 107.783 38.3768L118.879 36.0106C119.176 35.9323 119.492 36.0692 119.696 36.3234C119.9 36.5777 119.937 36.9297 119.826 37.223L112.014 56.8372L120.735 117.029C120.809 117.518 120.494 117.968 120.03 118.046C119.993 118.066 119.955 118.066 119.9 118.066Z" fill="white"/>
<path d="M100.064 60.7483C99.9526 60.7483 99.8598 60.7288 99.7484 60.6897C99.3217 60.5137 99.099 59.9857 99.2845 59.5359L106.818 39.8826L85.9245 33.9181C85.4792 33.7812 85.2009 33.2923 85.3308 32.823C85.4607 32.3537 85.906 32.0603 86.3699 32.1972L108.173 38.4159C108.414 38.4746 108.599 38.6506 108.711 38.8852C108.822 39.1199 108.822 39.3741 108.729 39.6088L100.843 60.2008C100.713 60.5332 100.398 60.7483 100.064 60.7483Z" fill="white"/>
<path d="M107.969 40.1563C107.579 40.1563 107.226 39.863 107.152 39.4523L99.4701 2.35544C99.3773 1.86655 99.6557 1.39721 100.12 1.29944C100.583 1.1821 101.029 1.495 101.122 1.98389L108.804 39.0808C108.896 39.5697 108.618 40.039 108.154 40.1368C108.08 40.1368 108.024 40.1563 107.969 40.1563Z" fill="white"/>
<path d="M119.046 37.7901C118.879 37.7901 118.731 37.751 118.582 37.6337C118.193 37.3599 118.081 36.8123 118.341 36.4017L140.107 1.65144C140.367 1.24078 140.886 1.12345 141.276 1.39723C141.665 1.671 141.777 2.21855 141.517 2.62922L119.751 37.3795C119.603 37.6532 119.325 37.7901 119.046 37.7901Z" fill="white"/>
<path d="M79.0404 122.172C78.9477 122.172 78.8734 122.153 78.7992 122.094L36.6781 90.4141C36.4926 90.2772 36.4369 89.9839 36.5853 89.7883C36.7152 89.5928 36.975 89.5341 37.1791 89.6906L73.9748 117.362L33.7463 77.9572C33.5793 77.7812 33.5608 77.5074 33.7278 77.3314C33.8948 77.1554 34.1545 77.1554 34.3215 77.3119L79.3559 121.41C79.5229 121.566 79.5414 121.84 79.393 122.016C79.3002 122.114 79.1703 122.172 79.0404 122.172Z" fill="white"/>
<path d="M78.5395 121.781C78.4838 121.781 78.4281 121.781 78.391 121.742L40.4078 105.961C40.1851 105.863 40.0924 105.609 40.1666 105.394C40.2594 105.159 40.5006 105.042 40.7047 105.139L72.4161 118.3L38.7007 98.8817C38.4966 98.7643 38.4224 98.4906 38.5337 98.2754C38.645 98.0603 38.9048 97.9821 39.1089 98.0994L78.7435 120.921C78.9477 121.038 79.0219 121.292 78.9291 121.507C78.8549 121.683 78.6879 121.781 78.5395 121.781Z" fill="white"/>
<path d="M110.808 125.145C110.622 125.145 110.455 125.008 110.399 124.812L95.0725 61.2372C95.0168 61.0025 95.1467 60.7679 95.3508 60.7092C95.5549 60.631 95.7961 60.7483 95.8704 60.983L116.894 119.826C116.968 120.06 116.875 120.315 116.653 120.393C116.43 120.471 116.189 120.373 116.114 120.139L97.763 68.7661L111.216 124.578C111.271 124.812 111.142 125.067 110.9 125.125C110.882 125.145 110.845 125.145 110.808 125.145Z" fill="white"/>
<path d="M103.293 131.363C103.088 131.363 102.903 131.187 102.866 130.972L95.6105 66.3021L93.1056 114.565C93.087 114.8 92.9014 114.976 92.6788 114.976H92.6602C92.419 114.956 92.252 114.761 92.2705 114.507L95.0539 61.0808C95.0724 60.8461 95.2394 60.6701 95.4621 60.6701C95.4621 60.6701 95.4621 60.6701 95.4807 60.6701C95.7033 60.6701 95.8703 60.8461 95.9074 61.0612L103.719 130.855C103.756 131.09 103.589 131.324 103.348 131.344C103.33 131.363 103.311 131.363 103.293 131.363Z" fill="white"/>
<path d="M89.6171 89.5732C89.58 89.5732 89.5614 89.5732 89.5243 89.5732C89.3017 89.5146 89.1532 89.2799 89.2089 89.0452L94.4787 63.9359L88.2997 75.3759C88.1884 75.591 87.9285 75.6692 87.7244 75.5323C87.5203 75.415 87.4461 75.1412 87.576 74.9261L95.1467 60.9439C95.2394 60.7483 95.4621 60.6701 95.6662 60.7483C95.8518 60.8266 95.9631 61.0417 95.926 61.2568L90.0625 89.2408C89.9882 89.4363 89.8027 89.5732 89.6171 89.5732Z" fill="white"/>
<path d="M118.007 104.455C117.84 104.455 117.673 104.338 117.617 104.162C117.191 103.184 102.736 75.767 95.1095 61.3546C94.9982 61.159 95.0539 60.9048 95.2394 60.7679C95.4064 60.631 95.6662 60.6701 95.7961 60.8461L115.651 85.2514C115.799 85.447 115.78 85.7208 115.613 85.8772C115.428 86.0337 115.168 86.0141 115.02 85.8381L97.8929 64.7768C118.378 103.595 118.415 103.829 118.434 103.927C118.471 104.162 118.304 104.396 118.081 104.435C118.044 104.455 118.026 104.455 118.007 104.455Z" fill="white"/>
<path d="M113.387 72.5403C113.313 72.5403 113.238 72.5208 113.183 72.4817L95.2766 61.5306C95.091 61.4132 95.0168 61.1981 95.091 60.983C95.1652 60.7875 95.3508 60.6506 95.5549 60.7092L112.348 64.0141C112.57 64.0532 112.737 64.2879 112.682 64.5421C112.645 64.7768 112.44 64.9528 112.181 64.8941L97.7816 62.0781L113.572 71.7386C113.776 71.8559 113.851 72.1297 113.721 72.3448C113.665 72.4621 113.535 72.5403 113.387 72.5403Z" fill="white"/>
<path d="M120.716 48.311C120.642 48.311 120.549 48.2914 120.494 48.2328C120.419 48.1741 120.345 48.135 120.364 47.8612H120.289L120.215 34.3288C120.215 34.0746 120.401 33.879 120.642 33.879C120.883 33.879 121.069 34.0746 121.069 34.3288L121.124 44.6932C122.052 41.3883 124.019 34.8568 127.953 21.8915C128.027 21.6568 128.25 21.5395 128.491 21.5981C128.714 21.6763 128.844 21.9306 128.769 22.1652C125.819 31.8843 121.403 46.551 121.143 47.8221V47.8612C121.143 47.9981 121.087 48.1154 120.995 48.1937C120.92 48.2719 120.828 48.311 120.716 48.311Z" fill="white"/>
<path d="M120.716 48.311C120.623 48.311 120.531 48.2719 120.456 48.2132L115.947 44.3999C115.762 44.2434 115.743 43.9697 115.873 43.7741C116.022 43.5786 116.281 43.559 116.467 43.6959L120.586 47.1768L144.319 2.12078C144.43 1.90567 144.69 1.82744 144.894 1.94478C145.098 2.06211 145.172 2.33588 145.061 2.55099L121.087 48.0763C121.032 48.1937 120.92 48.2719 120.79 48.2915C120.772 48.311 120.753 48.311 120.716 48.311Z" fill="white"/>
<path d="M114.129 49.719C113.925 49.719 113.758 49.5821 113.721 49.367C113.665 49.1323 113.814 48.8977 114.055 48.839L120.494 47.4701L151.723 2.53145C151.871 2.33589 152.131 2.29677 152.316 2.43366C152.502 2.57055 152.539 2.86388 152.409 3.05944L121.087 48.135C121.032 48.2132 120.939 48.2914 120.828 48.311L114.24 49.719C114.185 49.719 114.148 49.719 114.129 49.719Z" fill="white"/>
</svg>
