<svg width="167" height="176" viewBox="0 0 167 176" fill="none" xmlns="http://www.w3.org/2000/svg">
<path d="M86.1661 170.237C85.9434 170.237 85.7207 170.139 85.5723 169.963C85.3125 169.689 85.2569 169.279 85.4239 168.927L120.624 96.2387C120.698 96.0627 120.828 95.9259 120.995 95.8476L154.747 77.9739C154.989 77.837 155.267 77.8565 155.508 77.9739C155.749 78.1108 155.916 78.3454 155.953 78.6192L164.118 129.033C164.174 129.425 163.988 129.816 163.654 129.972L86.5372 170.1C86.4259 170.198 86.296 170.237 86.1661 170.237ZM121.997 97.3339L88.0773 167.362L162.355 128.701L154.488 80.125L121.997 97.3339Z" fill="white"/>
<path d="M48.888 152.872C48.721 152.872 48.554 152.813 48.4056 152.715L4.07633 119.823C3.798 119.627 3.66811 119.275 3.72377 118.923L21.6484 17.7428C21.7041 17.4299 21.9268 17.1561 22.2237 17.0583C22.5206 16.9605 22.836 17.0388 23.0772 17.2734L84.9601 80.1641C85.2384 80.4379 85.294 80.8681 85.127 81.2201L49.6302 152.383C49.5189 152.617 49.3148 152.774 49.0736 152.833C49.0179 152.852 48.9437 152.872 48.888 152.872ZM5.48657 118.689L48.5725 150.662L83.3086 80.9854L23.003 19.6983L5.48657 118.689Z" fill="white"/>
<path d="M121.366 97.549C121.236 97.549 121.088 97.5099 120.958 97.4316L98.6725 84.525L84.1992 81.6894C83.7353 81.5916 83.4385 81.1419 83.5313 80.653C83.624 80.1641 84.0693 79.8316 84.5146 79.949L99.1179 82.8236C99.2106 82.8432 99.2849 82.8823 99.3777 82.9214L121.774 95.9063C122.182 96.141 122.331 96.6885 122.108 97.1188C121.96 97.3925 121.663 97.549 121.366 97.549Z" fill="white"/>
<path d="M86.1661 170.237C85.962 170.237 85.7765 170.159 85.6095 170.022L65.551 151.874L48.9251 152.872C48.4241 152.93 48.0716 152.52 48.0345 152.031C48.0159 151.542 48.3685 151.112 48.8324 151.092L65.7922 150.075C65.9777 150.056 66.219 150.134 66.386 150.29L86.7043 168.673C87.0569 168.985 87.094 169.553 86.7971 169.924C86.6301 170.139 86.4073 170.237 86.1661 170.237Z" fill="white"/>
<path d="M65.8478 151.855C65.7179 151.855 65.5881 151.816 65.4582 151.757C65.05 151.522 64.883 150.994 65.1056 150.564L98.2272 83.2734C98.32 83.0974 98.4684 82.941 98.654 82.8628L131.293 68.1961C131.72 68.0005 132.221 68.2156 132.407 68.6654C132.592 69.1152 132.388 69.6432 131.961 69.8387L99.6003 84.3881L66.6272 151.385C66.4416 151.679 66.1447 151.855 65.8478 151.855Z" fill="white"/>
<path d="M155.137 79.6752C155.026 79.6752 154.933 79.6556 154.822 79.6165L131.293 69.8387C131.219 69.7996 131.163 69.7605 131.089 69.7214L52.9703 7.96497L38.2929 24.0983C38.0702 24.3525 37.7177 24.4503 37.4022 24.3134L22.2052 18.7401C21.7599 18.5836 21.5372 18.0752 21.6856 17.6059C21.8341 17.1365 22.3165 16.8823 22.7619 17.0583L37.4578 22.4361L52.2837 6.1463C52.5806 5.81386 53.0631 5.77475 53.3971 6.04853L132.036 68.1961L155.453 77.9347C155.879 78.1107 156.102 78.6388 155.935 79.0885C155.787 79.4601 155.471 79.6752 155.137 79.6752Z" fill="white"/>
<path d="M98.9695 84.5641C98.7654 84.5641 98.5613 84.4859 98.3943 84.3294L37.1052 24.1179C36.7712 23.7854 36.7527 23.2183 37.0682 22.8663C37.3836 22.5143 37.9216 22.4752 38.2556 22.8272L99.5447 83.0388C99.8787 83.3712 99.8972 83.9383 99.5817 84.2903C99.4147 84.4859 99.1922 84.5641 98.9695 84.5641Z" fill="white"/>
<path d="M55.9206 152.011C55.8464 152.011 55.7536 151.992 55.6794 151.933C55.4938 151.796 55.4381 151.522 55.568 151.307L93.7924 91.0174L54.6031 141.393C54.4547 141.588 54.1949 141.608 54.0093 141.451C53.8238 141.295 53.8053 141.021 53.9537 140.825L98.6169 83.3907C98.7654 83.2147 99.0066 83.1756 99.1922 83.3125C99.3777 83.4494 99.4148 83.7232 99.2849 83.9187L56.2546 151.796C56.1989 151.933 56.069 152.011 55.9206 152.011Z" fill="white"/>
<path d="M61.8399 151.64C61.7657 151.64 61.6915 151.62 61.6358 151.581C61.4317 151.464 61.3574 151.19 61.4873 150.975L97.1882 86.0503L67.8333 114.914C67.6663 115.09 67.3879 115.071 67.2395 114.895C67.0725 114.719 67.0911 114.425 67.2581 114.269L98.6912 83.3712C98.8396 83.2147 99.0808 83.2148 99.2478 83.3516C99.4148 83.4885 99.4519 83.7232 99.3592 83.9187L62.248 151.444C62.1367 151.561 61.9883 151.64 61.8399 151.64Z" fill="white"/>
<path d="M76.6285 96.7668C76.4801 96.7668 76.3317 96.6885 76.2575 96.5321C76.1462 96.317 76.2203 96.0432 76.4244 95.9259L96.2047 84.7401L81.0633 88.045C80.8221 88.1036 80.618 87.9472 80.5623 87.693C80.5066 87.4583 80.6552 87.2236 80.8964 87.165L98.8952 83.2343C99.0993 83.1952 99.3034 83.3125 99.3776 83.5081C99.4519 83.7232 99.3591 83.9579 99.1736 84.0557L76.8327 96.6885C76.7585 96.7472 76.7027 96.7668 76.6285 96.7668Z" fill="white"/>
<path d="M154.488 134.235C154.395 134.235 154.321 134.216 154.246 134.157L116.523 106.545C116.337 106.408 116.282 106.153 116.393 105.958C116.504 105.762 116.746 105.684 116.931 105.782L163.469 128.818C163.673 128.916 163.765 129.19 163.673 129.405C163.58 129.62 163.32 129.718 163.116 129.62L121.125 108.833L154.729 133.433C154.914 133.57 154.97 133.844 154.84 134.059C154.747 134.177 154.618 134.235 154.488 134.235Z" fill="white"/>
<path d="M137.361 143.153C137.213 143.153 137.083 143.074 136.99 142.937L116.375 106.427C116.263 106.232 116.3 105.977 116.486 105.841C116.653 105.704 116.894 105.723 117.043 105.88L146.379 137.423C146.546 137.599 146.546 137.873 146.379 138.049C146.212 138.225 145.952 138.225 145.785 138.049L118.917 109.145L137.732 142.468C137.843 142.683 137.788 142.957 137.584 143.074C137.509 143.133 137.435 143.153 137.361 143.153Z" fill="white"/>
<path d="M122.09 151.092C121.885 151.092 121.7 150.936 121.663 150.701L116.319 106.232C116.3 105.997 116.43 105.801 116.634 105.743C116.857 105.684 117.061 105.821 117.135 106.036L129.976 146.594C130.05 146.829 129.939 147.083 129.716 147.161C129.493 147.24 129.252 147.103 129.178 146.888L117.692 110.612L122.498 150.603C122.535 150.838 122.368 151.073 122.127 151.092C122.127 151.092 122.108 151.092 122.09 151.092Z" fill="white"/>
<path d="M107.375 158.758C107.357 158.758 107.32 158.758 107.301 158.758C107.078 158.719 106.911 158.484 106.967 158.23L116.356 106.095C116.393 105.86 116.56 105.704 116.82 105.743C117.043 105.762 117.21 105.958 117.191 106.193L116.022 154.045C116.022 154.299 115.781 154.514 115.595 154.475C115.354 154.475 115.187 154.26 115.187 154.025L116.226 111.668L107.802 158.406C107.746 158.601 107.579 158.758 107.375 158.758Z" fill="white"/>
<path d="M92.1967 166.658C92.1411 166.658 92.0855 166.639 92.0298 166.619C91.8071 166.521 91.7144 166.267 91.8071 166.033L116.375 106.017C116.467 105.801 116.69 105.684 116.913 105.782C117.117 105.86 117.228 106.114 117.173 106.329L99.7303 162.649C99.6561 162.884 99.4149 163.001 99.1922 162.943C98.9695 162.865 98.8582 162.61 98.9138 162.376L113.498 115.286L92.5864 166.404C92.5122 166.541 92.3637 166.658 92.1967 166.658Z" fill="white"/>
<path d="M158.978 127.528C158.83 127.528 158.681 127.449 158.607 127.293L138.808 87.4583C138.697 87.2432 138.771 86.9694 138.994 86.8521C139.198 86.7348 139.458 86.813 139.569 87.0477L157.401 122.913L146.397 83.3517C146.323 83.117 146.453 82.8628 146.676 82.8041C146.898 82.7454 147.14 82.8628 147.195 83.117L159.386 126.98C159.442 127.195 159.331 127.43 159.145 127.508C159.089 127.508 159.034 127.528 158.978 127.528Z" fill="white"/>
<path d="M158.978 127.528C158.755 127.528 158.588 127.352 158.551 127.137L153.17 79.6556C153.133 79.4014 153.3 79.1863 153.541 79.1668C153.82 79.1668 153.987 79.3036 154.005 79.5579L159.071 124.281L160.704 115.775C160.741 115.54 160.982 115.364 161.205 115.423C161.427 115.462 161.576 115.697 161.539 115.951L159.386 127.176C159.349 127.371 159.182 127.528 158.978 127.528Z" fill="white"/>
<path d="M158.978 127.528C158.885 127.528 158.774 127.489 158.7 127.41L124.446 95.2219C124.279 95.0654 124.261 94.7721 124.409 94.5961C124.558 94.4201 124.836 94.4005 125.003 94.557L155.842 123.538L132.035 91.1152C131.887 90.9196 131.924 90.6459 132.11 90.4894C132.295 90.333 132.555 90.3721 132.703 90.5676L159.312 126.804C159.442 126.98 159.423 127.254 159.275 127.41C159.182 127.489 159.089 127.528 158.978 127.528Z" fill="white"/>
<path d="M158.477 127.058C158.403 127.058 158.329 127.039 158.255 126.98L119.269 100.893C119.065 100.756 119.009 100.482 119.139 100.287C119.269 100.072 119.529 100.013 119.715 100.15L158.7 126.237C158.904 126.374 158.96 126.648 158.83 126.843C158.756 126.98 158.626 127.058 158.477 127.058Z" fill="white"/>
</svg>
