<svg width="160" height="175" viewBox="0 0 160 175" fill="none" xmlns="http://www.w3.org/2000/svg">
<path d="M87.6579 174.978H74.7803C74.669 174.978 74.5391 174.959 74.4463 174.9L59.0823 167.821C59.008 167.782 58.9338 167.743 58.8782 167.684L20.6352 134.127C20.561 134.068 20.4867 133.99 20.4496 133.892L15.8849 125.718L8.70389 114.024C8.64822 113.926 8.61121 113.828 8.5741 113.711L0.725022 70.0431C0.706466 69.9453 0.706466 69.8671 0.725022 69.7693L2.65487 53.4991L4.2692 44.2689C4.30631 44.0733 4.399 43.8973 4.52889 43.7604L21.8041 27.3924C21.8598 27.3533 21.9155 27.3142 21.9712 27.2751L66.3004 2.22445C66.3746 2.18534 66.4674 2.14623 66.5602 2.12667L78.3985 0.0146667C78.4913 -0.00488889 78.5656 -0.00488889 78.6398 0.0146667L91.2019 1.69645C91.2947 1.716 91.3875 1.73554 91.4803 1.77465L136.682 25.8084C136.737 25.8476 136.793 25.8867 136.849 25.9258L150.932 38.4022L154.959 42.3133C155.07 42.4111 155.144 42.548 155.2 42.7044L157.687 51.0546L159.319 68.2635C159.319 68.3613 159.319 68.4395 159.301 68.5373L150.821 111.872C150.802 111.97 150.765 112.068 150.71 112.166L138.704 132.23C138.667 132.288 138.611 132.367 138.556 132.406L103.356 166.628C103.3 166.687 103.226 166.726 103.17 166.765L88.0475 174.861C87.9176 174.939 87.7878 174.978 87.6579 174.978ZM74.9472 173.199H87.4537L102.298 165.259L137.331 131.193L149.188 111.364L157.612 68.3222L156.016 51.4262L153.641 43.4867L149.8 39.7711L135.828 27.3924L90.8494 3.47601L78.547 1.83332L66.9684 3.88666L22.8618 28.8004L5.86495 44.8751L4.3248 53.7729L2.4321 69.8475L10.2255 113.222L17.3323 124.799L21.8413 132.875L59.8801 166.256L74.9472 173.199Z" fill="white"/>
<path d="M102.781 166.882C102.632 166.882 102.484 166.843 102.354 166.765C101.946 166.511 101.816 165.983 102.038 165.552L106.028 158.297L110.24 115.021L107.401 97.0102L96.5274 77.6698L34.0694 32.34L22.1196 28.9178C21.6743 28.7809 21.396 28.292 21.5258 27.8227C21.6557 27.3534 22.1196 27.0796 22.565 27.1969L34.6446 30.6582C34.7374 30.6778 34.8301 30.7365 34.9043 30.7756L97.6222 76.3009C97.715 76.3791 97.8078 76.4769 97.8634 76.5747L108.904 96.228C108.96 96.3258 108.997 96.4236 109.015 96.5409L111.891 114.845C111.91 114.923 111.91 115.001 111.891 115.08L107.642 158.669C107.624 158.786 107.586 158.923 107.531 159.021L103.449 166.432C103.356 166.726 103.077 166.882 102.781 166.882Z" fill="white"/>
<path d="M74.7803 174.978C74.4463 174.978 74.1308 174.763 74.0009 174.431L71.2733 167.352C71.2362 167.254 71.2176 167.136 71.2176 167.039L70.494 123.371L73.9453 105.048C73.9639 104.95 74.0009 104.872 74.0381 104.793L81.3489 90.7916C81.3861 90.7133 81.4602 90.6156 81.5345 90.5569L96.6387 76.3987L140.485 42.8218L149.596 37.972C150.005 37.7569 150.524 37.9329 150.728 38.3631C150.932 38.7933 150.765 39.3409 150.357 39.556L141.358 44.3471L97.6778 77.8067L82.7592 91.8085L75.5968 105.556L72.1825 123.547L72.9062 166.863L75.5596 173.785C75.7266 174.235 75.5225 174.763 75.0957 174.939C74.9844 174.959 74.8731 174.978 74.7803 174.978Z" fill="white"/>
<path d="M87.6579 174.978C87.528 174.978 87.3981 174.939 87.2682 174.88C86.86 174.646 86.693 174.118 86.8971 173.688L90.3299 166.687L92.3896 123.215L89.5691 106.26L74.7432 106.104C74.6319 106.104 74.5206 106.084 74.4278 106.025L56.2619 97.8511L10.5781 64.0396C10.5224 64.0005 10.4668 63.9418 10.4111 63.8831L2.8033 54.1836C2.58063 53.9098 2.54355 53.5187 2.71055 53.1862L10.3183 38.324C10.4296 38.1089 10.6152 37.9525 10.8379 37.8938C11.0606 37.8351 11.3017 37.8742 11.5059 37.9916L20.6167 43.9169L67.154 76.3009L82.5922 90.5373C82.6664 90.596 82.7036 90.6742 82.7592 90.7525L90.5896 104.246L107.735 95.9347L149.745 61.0085L156.443 50.4094C156.703 49.9987 157.223 49.9009 157.612 50.1551C158.002 50.4289 158.113 50.9765 157.854 51.3871L151.081 62.1036C151.025 62.1818 150.969 62.26 150.895 62.2991L108.7 97.3818C108.644 97.4209 108.589 97.46 108.533 97.4991L91.202 105.888L94.0595 123C94.0781 123.058 94.0781 123.136 94.0781 123.195L91.9999 166.96C91.9999 167.097 91.9628 167.215 91.9071 167.332L88.3815 174.509C88.2516 174.802 87.9548 174.978 87.6579 174.978ZM74.9473 104.304L88.7712 104.461L81.4232 91.7889L66.1706 77.7089L19.7445 45.4031L11.4131 39.9862L4.51049 53.4991L11.6729 62.6316L57.0969 96.2867L74.9473 104.304Z" fill="white"/>
<path d="M71.3289 124.212C71.2176 124.212 71.1063 124.192 71.0135 124.153L52.458 116.057C52.3837 116.038 52.3281 115.999 52.2725 115.94L7.70198 80.7791C7.62776 80.7205 7.55358 80.6423 7.51647 80.564L0.873551 70.356C0.613774 69.9454 0.706542 69.3978 1.09621 69.124C1.48588 68.8502 2.00544 68.948 2.26522 69.3587L8.83384 79.4494L53.2002 114.454L71.5146 122.432L93.0947 122.276L110.667 114.219L151.174 78.5498L157.761 67.8725C158.021 67.4618 158.54 67.3445 158.93 67.6182C159.319 67.892 159.431 68.4396 159.171 68.8502L152.509 79.6449C152.454 79.7231 152.398 79.7818 152.343 79.8405L111.65 115.666C111.595 115.725 111.52 115.764 111.446 115.803L93.5956 123.977C93.4843 124.016 93.373 124.056 93.2616 124.056L71.3289 124.212C71.3475 124.212 71.3475 124.212 71.3289 124.212Z" fill="white"/>
<path d="M59.4163 167.88C59.0637 167.88 58.7483 167.645 58.6184 167.293L56.2804 160.429C56.2618 160.351 56.2433 160.292 56.2248 160.214L51.9384 115.295C51.9384 115.197 51.9383 115.099 51.9569 115.021L55.7979 96.8147C55.8165 96.7364 55.8351 96.6582 55.8722 96.58L65.9849 76.5942C66.0406 76.4965 66.1149 76.3987 66.2077 76.3205L80.2171 64.3916L126.031 29.9933C126.086 29.9542 126.142 29.9151 126.198 29.8956L135.977 25.7693C136.403 25.5933 136.904 25.8084 137.071 26.2582C137.238 26.708 137.034 27.236 136.607 27.412L126.921 31.4991L81.219 65.7996L67.3951 77.5916L57.4122 97.3036L53.6269 115.256L57.8947 159.92L60.2141 166.667C60.3811 167.136 60.14 167.645 59.7132 167.801C59.6019 167.86 59.509 167.88 59.4163 167.88Z" fill="white"/>
<path d="M72.0526 167.88C71.9412 167.88 71.8299 167.86 71.7186 167.801L56.7257 160.937C56.6514 160.898 56.5958 160.859 56.5216 160.82L16.3117 126.363C16.1633 126.226 16.0519 126.05 16.0148 125.855L7.36794 80.2316C7.34939 80.1142 7.34939 80.0165 7.36794 79.8991L10.244 63.1205C10.2626 63.0423 10.2811 62.9445 10.3182 62.8662L19.4291 44.2298C19.4847 44.132 19.5403 44.0342 19.6146 43.9756L33.8468 30.8147L76.9698 5.80311L66.5045 3.84756C66.0406 3.76934 65.7437 3.30001 65.8179 2.81112C65.8922 2.32223 66.3374 2.00935 66.8013 2.08757L79.4562 4.45381L90.8679 1.67689C91.3504 1.55956 91.7771 1.87247 91.8885 2.3418C91.9998 2.83069 91.703 3.30003 91.2576 3.41736L81.9427 5.68579L126.866 29.9347C126.921 29.9738 126.977 29.9934 127.014 30.052L141.469 42.8218C141.543 42.9 141.617 42.9783 141.673 43.076L151.118 61.1649C151.173 61.2823 151.211 61.3996 151.211 61.5169L152.602 79.0582C152.602 79.1365 152.602 79.2147 152.602 79.2929L145.848 120.086C145.811 120.262 145.737 120.418 145.625 120.555L138.296 128.592L107.419 159.197C107.364 159.256 107.29 159.295 107.215 159.334L91.5359 167.684C91.4246 167.743 91.2947 167.782 91.1648 167.782L72.0526 167.88ZM57.5051 159.373L72.2196 166.1L90.9607 166.022L106.362 157.828L137.127 127.341L144.252 119.519L150.951 79.0974L149.596 61.8689L140.319 44.0734L126.049 31.4796L79.5491 6.38979L34.8673 32.2618L20.8949 45.188L11.9141 63.5507L9.07502 80.036L17.6291 125.17L57.5051 159.373Z" fill="white"/>
<path d="M72.0526 167.449C72.0155 167.449 71.9783 167.449 71.9227 167.43C71.7186 167.352 71.5887 167.136 71.6258 166.902L80.6995 123.234C80.7552 123 80.9592 122.863 81.2004 122.902C81.4231 122.96 81.5716 123.195 81.516 123.43L73.537 161.856L88.2887 123.039C88.3815 122.804 88.6227 122.706 88.8453 122.784C89.068 122.882 89.1608 123.136 89.0866 123.371L72.4423 167.176C72.3866 167.332 72.2196 167.449 72.0526 167.449Z" fill="white"/>
<path d="M72.0526 167.449C71.9598 167.449 71.8671 167.41 71.7928 167.352C71.6258 167.215 71.5702 166.96 71.6815 166.765L92.5195 130.568C92.6308 130.352 92.8906 130.294 93.0947 130.411C93.2988 130.548 93.3544 130.822 93.2431 131.017L74.3535 163.832L91.9071 144.765C92.0741 144.589 92.3339 144.589 92.5009 144.765C92.6679 144.941 92.6679 145.215 92.5009 145.391L72.3496 167.293C72.2754 167.391 72.1639 167.449 72.0526 167.449Z" fill="white"/>
<path d="M72.0526 167.449C71.8856 167.449 71.7372 167.352 71.663 167.195C71.5702 167 71.6444 166.745 71.8299 166.628L91.5545 153.917C91.7586 153.8 92.0184 153.858 92.1297 154.073C92.2596 154.288 92.1853 154.562 91.9812 154.68L75.1513 165.513L91.3318 160.214C91.5545 160.136 91.7957 160.272 91.8699 160.507C91.9441 160.742 91.8143 160.996 91.5916 161.074L72.1825 167.43C72.1454 167.43 72.0897 167.449 72.0526 167.449Z" fill="white"/>
</svg>
