<svg width="158" height="165" viewBox="0 0 158 165" fill="none" xmlns="http://www.w3.org/2000/svg">
<path d="M68.6211 164.8C68.4912 164.8 68.3614 164.761 68.2315 164.703L29.8215 144.208C29.7102 144.15 29.5988 144.052 29.5246 143.935L0.72641 101.89C0.596521 101.695 0.540822 101.44 0.577933 101.206L6.12603 71.3053C6.18169 71.0511 6.3301 70.8165 6.55277 70.6991C6.77543 70.5622 7.03524 70.5622 7.27646 70.66L49.7316 88.6511C49.8986 88.7098 50.0285 88.8271 50.1213 88.9835L81.9254 139.789C82.0924 140.063 82.111 140.434 81.9626 140.708L69.3634 164.351C69.1964 164.644 68.918 164.8 68.6211 164.8ZM30.7863 142.722L68.2871 162.747L80.2369 140.317L48.8595 90.196L7.59187 72.7134L2.30359 101.186L30.7863 142.722Z" fill="white"/>
<path d="M73.5385 31.2165C73.4642 31.2165 73.3715 31.1969 73.2972 31.1773L30.4154 17.684C30.1185 17.5862 29.8958 17.332 29.8402 17.0191C29.7659 16.7062 29.8772 16.3738 30.0998 16.1587L44.3876 2.66535C44.5361 2.52846 44.7216 2.45025 44.9257 2.43069L91.2219 0.866211C91.2961 0.866211 91.3703 0.86623 91.4445 0.885786L131.988 11.2307C132.434 11.348 132.712 11.8173 132.619 12.2866L129.205 27.7942C129.112 28.1854 128.797 28.4591 128.426 28.4786L73.5941 31.1773C73.557 31.2164 73.5385 31.2165 73.5385 31.2165ZM32.3265 16.4325L73.6312 29.4173L127.684 26.7578L130.764 12.756L91.1477 2.64577L45.2783 4.21025L32.3265 16.4325Z" fill="white"/>
<path d="M68.6211 164.8C68.2129 164.8 67.8603 164.488 67.7861 164.057C67.7119 163.568 68.0273 163.119 68.4912 163.04L115.548 155.179L132.898 133.609L81.3317 141.158C80.8864 141.216 80.4411 140.884 80.3854 140.395C80.3297 139.906 80.6451 139.456 81.109 139.398L134.864 131.536C135.217 131.478 135.551 131.673 135.718 131.986C135.885 132.319 135.848 132.71 135.625 132.984L116.643 156.587C116.513 156.744 116.328 156.861 116.123 156.9L68.7696 164.8C68.7139 164.8 68.6582 164.8 68.6211 164.8Z" fill="white"/>
<path d="M6.96114 72.3613C6.84981 72.3613 6.71991 72.3418 6.60858 72.2831C6.1818 72.0876 5.99619 71.54 6.2003 71.1098L29.8772 16.4716C30.0628 16.0218 30.5824 15.8262 30.9906 16.0413C31.4174 16.2369 31.6029 16.7845 31.3988 17.2147L7.72187 71.8529C7.59198 72.1658 7.29514 72.3613 6.96114 72.3613Z" fill="white"/>
<path d="M49.4162 90.3524C49.3048 90.3524 49.1935 90.3328 49.0822 90.2742C48.6554 90.0786 48.4512 89.5506 48.6368 89.1008L72.7405 29.9649C72.9261 29.5151 73.427 29.3 73.8538 29.4955C74.2806 29.6911 74.4847 30.2191 74.2991 30.6689L50.1955 89.8049C50.0656 90.1373 49.7502 90.3524 49.4162 90.3524Z" fill="white"/>
<path d="M134.976 133.296C134.865 133.296 134.753 133.277 134.642 133.218C134.215 133.023 134.011 132.495 134.197 132.045L156.111 77.5826V56.8733L131.061 12.5604C130.819 12.1302 130.949 11.5827 131.358 11.348C131.747 11.0938 132.285 11.2307 132.508 11.6609L157.688 56.1889C157.762 56.3258 157.799 56.4822 157.799 56.6387V77.7782C157.799 77.8956 157.781 78.0129 157.725 78.1302L135.755 132.768C135.607 133.081 135.31 133.296 134.976 133.296Z" fill="white"/>
<path d="M156.946 78.6582C156.667 78.6582 156.389 78.5017 156.222 78.228L127.628 28.0875C127.387 27.6573 127.517 27.1098 127.925 26.8751C128.314 26.6209 128.853 26.7578 129.075 27.188L157.669 77.3284C157.911 77.7586 157.781 78.3062 157.372 78.5409C157.243 78.6191 157.094 78.6582 156.946 78.6582Z" fill="white"/>
<path d="M115.994 156.45C115.956 156.45 115.901 156.45 115.864 156.431C115.66 156.352 115.548 156.137 115.585 155.922L119.463 134.528C119.501 134.294 119.723 134.118 119.964 134.176C120.187 134.216 120.336 134.45 120.299 134.704L116.958 153.087L126.607 133.375C126.719 133.16 126.978 133.062 127.183 133.179C127.387 133.296 127.48 133.57 127.368 133.785L116.383 156.216C116.29 156.372 116.142 156.45 115.994 156.45Z" fill="white"/>
<path d="M115.994 156.45C115.845 156.45 115.697 156.372 115.622 156.216L105.658 136.856C105.547 136.64 105.621 136.367 105.825 136.249C106.029 136.132 106.289 136.21 106.4 136.425L115.27 153.654L112.969 135.624C112.932 135.389 113.099 135.154 113.34 135.115C113.563 135.076 113.785 135.252 113.822 135.506L116.439 155.942C116.457 156.157 116.346 156.352 116.142 156.431C116.068 156.45 116.031 156.45 115.994 156.45Z" fill="white"/>
<path d="M115.994 156.45C115.919 156.45 115.827 156.431 115.771 156.372L90.7023 139.222C90.4982 139.085 90.4425 138.811 90.5724 138.616C90.7023 138.4 90.9621 138.361 91.1476 138.479L112.988 153.419L98.607 137.99C98.44 137.814 98.44 137.54 98.607 137.364C98.774 137.188 99.0337 137.188 99.2007 137.364L116.29 155.688C116.439 155.844 116.457 156.098 116.309 156.274C116.235 156.392 116.105 156.45 115.994 156.45Z" fill="white"/>
<path d="M115.994 156.45C115.956 156.45 115.919 156.45 115.882 156.431L78.1774 146.203C77.9547 146.144 77.8062 145.89 77.8804 145.656C77.9361 145.421 78.1774 145.264 78.4 145.343L111.837 154.416L83.6141 140.297C83.41 140.2 83.3173 139.926 83.4101 139.711C83.5028 139.496 83.7626 139.398 83.9667 139.496L116.161 155.609C116.365 155.707 116.457 155.942 116.383 156.157C116.328 156.333 116.161 156.45 115.994 156.45Z" fill="white"/>
<path d="M72.0169 158.015C71.7942 158.015 71.6087 157.819 71.5901 157.584C71.5901 157.33 71.7571 157.135 71.9983 157.115L110.093 155.766L75.3012 151.737C75.0786 151.718 74.9115 151.483 74.9301 151.248C74.9487 151.014 75.1528 150.818 75.394 150.857L116.031 155.57C116.253 155.59 116.42 155.805 116.402 156.04C116.402 156.274 116.216 156.45 115.994 156.47L72.0169 158.015Z" fill="white"/>
<path d="M44.1278 87.6538C44.0536 87.6538 43.998 87.6342 43.9237 87.5951C43.7196 87.4778 43.6455 87.204 43.7568 86.9889L69.2521 37.6502L38.4498 84.8964C38.3199 85.092 38.0601 85.1506 37.856 85.0137C37.6705 84.8769 37.6148 84.6031 37.7447 84.388L73.1673 30.0431C73.2972 29.8476 73.5384 29.7889 73.7425 29.9062C73.9281 30.0235 74.0023 30.2974 73.891 30.4929L44.499 87.38C44.4247 87.5756 44.2763 87.6538 44.1278 87.6538Z" fill="white"/>
<path d="M32.8646 82.8822C32.7718 82.8822 32.6791 82.8431 32.6049 82.7844C32.4193 82.628 32.4007 82.3542 32.5492 82.1586L67.1739 37.7871L27.465 80.34C27.298 80.516 27.0382 80.516 26.8712 80.34C26.7042 80.164 26.7042 79.8902 26.8712 79.7142L73.2415 30.004C73.4085 29.828 73.6497 29.828 73.8167 29.9844C73.9837 30.1409 74.0023 30.4147 73.8538 30.5907L33.1801 82.7062C33.1059 82.8235 32.9759 82.8822 32.8646 82.8822Z" fill="white"/>
<path d="M20.8035 77.7782C20.6921 77.7782 20.5623 77.7195 20.4881 77.6217C20.3396 77.4262 20.3582 77.1525 20.5438 76.996L65.541 36.868L14.7173 75.0013C14.5318 75.1382 14.272 75.0991 14.1235 74.9036C13.9936 74.708 14.0307 74.4342 14.2163 74.2778L73.2786 29.9649C73.4642 29.828 73.724 29.8671 73.8539 30.0627C74.0023 30.2582 73.9653 30.5125 73.7982 30.6689L21.0633 77.6804C20.9891 77.7391 20.8962 77.7782 20.8035 77.7782Z" fill="white"/>
<path d="M7.53627 72.1463C7.38783 72.1463 7.25792 72.068 7.16514 71.9311C7.05381 71.716 7.10951 71.4422 7.31362 71.3249L62.238 36.8876L10.2083 64.8129C10.0042 64.9303 9.74439 64.8325 9.63306 64.6174C9.52173 64.4022 9.61446 64.1285 9.81857 64.0111L73.3343 29.9062C73.5384 29.8085 73.7796 29.8867 73.891 30.0822C74.0023 30.2973 73.928 30.5516 73.7425 30.6885L7.74036 72.068C7.68469 72.1267 7.6105 72.1463 7.53627 72.1463Z" fill="white"/>
<path d="M13.5112 56.8342C13.3442 56.8342 13.1958 56.7365 13.1216 56.5605C13.0288 56.3258 13.1401 56.0716 13.3442 55.9738L64.5205 33.7587L16.8327 49.4422C16.61 49.5204 16.3687 49.3836 16.3131 49.1489C16.2388 48.9142 16.3688 48.66 16.5914 48.6013L73.4271 29.9062C73.6312 29.828 73.8724 29.9454 73.9466 30.18C74.0208 30.3952 73.928 30.6493 73.7054 30.7471L13.6782 56.8147C13.6225 56.8147 13.5668 56.8342 13.5112 56.8342Z" fill="white"/>
<path d="M19.5232 42.9498C19.3191 42.9498 19.152 42.8129 19.1149 42.5978C19.0593 42.3631 19.2077 42.1285 19.4303 42.0698L65.2626 31.7445L22.2694 36.7507C22.0096 36.7702 21.8241 36.5943 21.8055 36.3596C21.7869 36.1054 21.954 35.8903 22.1766 35.8707L73.4827 29.9062C73.7239 29.8671 73.9095 30.0431 73.9466 30.2778C73.9837 30.5125 73.8352 30.7276 73.6126 30.7863L19.5974 42.9693C19.5788 42.9302 19.5603 42.9498 19.5232 42.9498Z" fill="white"/>
<path d="M73.5385 30.7667C73.5199 30.7667 73.5199 30.7667 73.5385 30.7667L25.0528 30.1996C24.8116 30.1996 24.626 30.0041 24.6445 29.7498C24.6445 29.4956 24.8301 29.3392 25.0714 29.3196L67.4708 29.8085L27.8917 23.5116C27.6691 23.4725 27.5021 23.2574 27.5392 23.0031C27.5763 22.7685 27.7804 22.5925 28.0216 22.6316L73.6126 29.8867C73.8353 29.9258 73.9838 30.1214 73.9652 30.356C73.9281 30.5907 73.7426 30.7667 73.5385 30.7667Z" fill="white"/>
</svg>
