<svg width="155" height="175" viewBox="0 0 155 175" fill="none" xmlns="http://www.w3.org/2000/svg">
<path d="M56.8544 128.491C56.6342 128.491 56.3956 128.393 56.2488 128.217C56.0285 127.963 55.9551 127.591 56.0836 127.278L82.6751 58.8142C82.7486 58.6382 82.8587 58.5013 83.0055 58.4035L119.562 33.4506C119.819 33.2746 120.149 33.2551 120.424 33.4311C120.7 33.5875 120.865 33.9004 120.847 34.2328L119.268 105.728C119.268 106.099 119.03 106.432 118.699 106.549L57.148 128.471C57.0379 128.491 56.9461 128.491 56.8544 128.491ZM84.1066 59.7333L58.3225 126.144L117.598 105.044L119.122 35.8364L84.1066 59.7333Z" fill="white"/>
<path d="M55.5881 174.427H55.5698C55.111 174.407 54.7439 173.996 54.7623 173.507L56.0102 127.982L24.3169 95.8719C24.1701 95.7155 24.0783 95.5199 24.06 95.3048L18.5178 28.0337C18.4994 27.7208 18.6279 27.4079 18.8665 27.2319C19.105 27.056 19.417 27.0168 19.6923 27.1537L83.7762 58.3448C84.1983 58.5404 84.3818 59.088 84.18 59.5182C83.9965 59.968 83.4826 60.1635 83.0789 59.9484L20.3162 29.3831L25.6933 94.8159L57.4233 126.965C57.5884 127.141 57.6986 127.376 57.6802 127.63L56.4139 173.547C56.4139 174.036 56.0469 174.427 55.5881 174.427Z" fill="white"/>
<path d="M116.461 166.663C116.461 166.663 116.442 166.663 116.424 166.663C115.965 166.643 115.598 166.233 115.616 165.744L117.562 105.65C117.58 105.278 117.8 104.965 118.112 104.848L153.09 91.4133C153.531 91.2373 154.008 91.4915 154.155 91.9413C154.32 92.4106 154.081 92.919 153.659 93.0755L119.213 106.295L117.286 165.783C117.286 166.291 116.919 166.663 116.461 166.663Z" fill="white"/>
<path d="M129.747 18.2755C129.747 18.2755 129.729 18.2755 129.71 18.2755L80.0692 16.3591C79.9775 16.3591 79.8673 16.3395 79.7756 16.2808L49.5504 2.67016C49.1283 2.47461 48.9265 1.96617 49.11 1.49683C49.2935 1.04706 49.789 0.831942 50.2111 1.0275L80.2894 14.5599L129.765 16.4568C130.224 16.4764 130.591 16.8871 130.573 17.3759C130.573 17.8844 130.206 18.2755 129.747 18.2755Z" fill="white"/>
<path d="M135.766 72.5617C135.454 72.5617 135.143 72.3661 135.014 72.0337L119.378 34.8586L80.0325 16.3982L19.5088 28.8159C19.1234 28.8746 18.7197 28.6595 18.5728 28.2684L13.673 15.127C13.5078 14.6773 13.7097 14.1493 14.1317 13.9733C14.5538 13.7973 15.0493 14.0124 15.2145 14.4622L19.8758 26.9386L79.9591 14.5991C80.1243 14.5599 80.2894 14.5795 80.4546 14.6577L120.333 33.3724C120.516 33.4506 120.681 33.6266 120.755 33.8222L136.519 71.3102C136.702 71.7599 136.519 72.2879 136.097 72.4835C136.005 72.5422 135.877 72.5617 135.766 72.5617Z" fill="white"/>
<path d="M55.5881 174.427C55.3312 174.427 55.0926 174.309 54.9275 174.075L20.7567 126.77L6.71768 125.459C6.31394 125.42 6.00197 125.088 5.96527 124.677L0.423065 71.4471C0.423065 71.4275 0.423065 71.4079 0.423065 71.3884C0.423065 71.3102 0.423073 71.2319 0.459776 71.1342L13.6363 14.5991C13.7097 14.3057 13.9115 14.0711 14.1684 13.9733L49.6238 1.04706C49.7339 1.00795 49.844 0.988393 49.9542 1.00795L89.8323 3.92172L130.004 16.5546C130.316 16.6524 130.555 16.9457 130.591 17.2977L136.574 71.3102L154.008 91.6675C154.155 91.8435 154.228 92.0586 154.228 92.2933L153.164 133.321C153.164 133.575 153.054 133.81 152.87 133.966L116.993 166.448C116.864 166.565 116.717 166.624 116.552 166.663L55.6799 174.427C55.6615 174.427 55.6248 174.427 55.5881 174.427ZM22.078 125.675L55.9735 172.588L116.13 164.923L151.531 132.871L152.558 92.5866L135.161 72.2879C135.051 72.1511 134.977 71.9751 134.941 71.7991L128.995 18.0799L89.5387 5.66217L50.0092 2.76794L15.1411 15.4791L2.18482 71.0559L25.4547 94.5813C25.6566 94.7768 25.7483 95.0506 25.7116 95.3439L22.078 125.675ZM7.54351 123.758L20.4631 124.971L24.0049 95.5786L2.33164 73.6764L7.54351 123.758Z" fill="white"/>
<path d="M56.2121 151.331C56.0653 151.331 55.9368 151.253 55.845 151.116L24.5188 95.4613C24.4087 95.2657 24.4637 94.992 24.6472 94.8551C24.8308 94.7182 25.0693 94.7573 25.2161 94.9528L56.8544 139.481C57.0012 139.676 56.9645 139.95 56.781 140.107C56.5975 140.263 56.3405 140.224 56.1937 140.028L29.2352 102.071L56.5791 150.647C56.6892 150.862 56.6342 151.136 56.4323 151.253C56.3589 151.312 56.2855 151.331 56.2121 151.331Z" fill="white"/>
<path d="M47.2748 162.478C47.1097 162.478 46.9445 162.361 46.8894 162.185L24.5004 95.3831C24.427 95.168 24.5188 94.9137 24.7206 94.8159C24.9225 94.7182 25.1611 94.8159 25.2528 95.0311L56.3038 160.953C56.414 161.168 56.3222 161.442 56.1203 161.54C55.9184 161.657 55.6615 161.559 55.5514 161.344L27.5835 101.954L47.6786 161.891C47.752 162.126 47.6419 162.38 47.4216 162.459C47.3849 162.478 47.3299 162.478 47.2748 162.478Z" fill="white"/>
<path d="M36.0803 146.971C35.8968 146.971 35.7133 146.834 35.6766 146.619L25.5465 100.194L27.1614 133.556C27.1798 133.81 26.9963 134.005 26.7577 134.025C26.5191 134.005 26.3356 133.849 26.3172 133.595L24.4637 95.2266C24.4454 94.9919 24.6105 94.7964 24.8308 94.7573C25.0143 94.7377 25.2529 94.8746 25.2896 95.0897L36.4841 146.384C36.5391 146.619 36.3923 146.873 36.1721 146.912C36.1537 146.971 36.117 146.971 36.0803 146.971Z" fill="white"/>
<path d="M56.8544 128.06C56.7259 128.06 56.6158 128.002 56.524 127.904C56.3772 127.728 56.3956 127.454 56.5608 127.298L118.956 67.5946C119.122 67.4382 119.397 67.4382 119.544 67.6337C119.69 67.8097 119.69 68.1031 119.507 68.2595L62.9104 122.428L118.718 79.5626C118.901 79.4062 119.158 79.4648 119.305 79.6604C119.433 79.8559 119.397 80.1297 119.213 80.2862L57.0746 128.002C57.0195 128.021 56.9461 128.06 56.8544 128.06Z" fill="white"/>
<path d="M57.8087 127.552C57.6619 127.552 57.515 127.454 57.4416 127.298C57.3499 127.083 57.4233 126.828 57.6068 126.711L118.553 90.1226C118.754 90.0053 119.011 90.0835 119.122 90.2986C119.232 90.5137 119.158 90.7875 118.956 90.9048L66.3055 122.526L118.424 97.3582C118.644 97.2604 118.883 97.3582 118.975 97.5733C119.066 97.7884 118.975 98.0622 118.773 98.1599L57.9922 127.513C57.9188 127.532 57.8637 127.552 57.8087 127.552Z" fill="white"/>
<path d="M98.8613 87.8737C98.8062 87.8737 98.7512 87.8542 98.6961 87.8346C98.4759 87.7368 98.3841 87.4826 98.4759 87.2479L119.617 34.0177C119.709 33.8026 119.929 33.7048 120.131 33.7635C120.333 33.8417 120.461 34.0764 120.406 34.2915L109.854 77.3919C109.799 77.6266 109.579 77.783 109.34 77.7048C109.12 77.6462 108.991 77.3919 109.046 77.1573L118.149 39.9822L99.2467 87.5804C99.1733 87.7564 99.0265 87.8737 98.8613 87.8737Z" fill="white"/>
<path d="M70.5814 114.919C70.508 114.919 70.4162 114.899 70.3428 114.841C70.1593 114.704 70.1043 114.43 70.2144 114.215L119.617 33.9395C119.745 33.7439 119.984 33.6853 120.186 33.8026C120.388 33.9199 120.443 34.1937 120.333 34.3893L87.7769 98.5511C87.6668 98.7662 87.4099 98.8444 87.208 98.7271C87.0061 98.6097 86.9327 98.3359 87.0428 98.1208L114.919 43.1893L70.9117 114.704C70.8567 114.841 70.7282 114.919 70.5814 114.919Z" fill="white"/>
<path d="M56.8544 128.06C56.781 128.06 56.7076 128.041 56.6342 128.002C56.4323 127.865 56.3772 127.591 56.5057 127.396L101.504 50.4444L71.6091 90.8071C71.4623 91.0026 71.2054 91.0417 71.0219 90.8853C70.8383 90.7288 70.8016 90.4551 70.9484 90.2595L105.505 43.6195C105.651 43.4239 105.89 43.4044 106.073 43.5217C106.257 43.6586 106.312 43.9128 106.184 44.128L57.2214 127.865C57.1297 127.982 57.0012 128.06 56.8544 128.06Z" fill="white"/>
<path d="M98.8613 68.9831C98.8246 68.9831 98.7879 68.9831 98.7328 68.9635C98.5126 68.8853 98.3842 68.6506 98.4576 68.4159L105.413 43.7368C105.468 43.5413 105.651 43.3848 105.853 43.4239C106.055 43.4435 106.202 43.6195 106.22 43.8346L107.156 55.6657C107.175 55.92 107.009 56.1351 106.771 56.1546C106.514 56.1937 106.33 55.9982 106.312 55.744L105.578 46.2204L99.2467 68.6506C99.21 68.8657 99.0265 68.9831 98.8613 68.9831Z" fill="white"/>
<path d="M111.983 47.6479C111.909 47.6479 111.854 47.6284 111.799 47.6088L105.633 44.2648C105.486 44.1866 105.394 44.0106 105.413 43.8346C105.431 43.6586 105.541 43.5022 105.706 43.4435L116.038 40.0213C116.259 39.9431 116.497 40.08 116.552 40.3146C116.626 40.5493 116.497 40.8035 116.277 40.8622L106.936 43.9715L112.185 46.8266C112.386 46.9439 112.478 47.1982 112.368 47.4328C112.276 47.5697 112.13 47.6479 111.983 47.6479Z" fill="white"/>
<path d="M78.3075 72.7964C78.1974 72.7964 78.0872 72.7573 78.0138 72.6595C77.8487 72.4835 77.8487 72.2097 78.0138 72.0337L105.523 43.5413C105.688 43.3653 105.945 43.3653 106.11 43.5413C106.275 43.7173 106.275 43.9911 106.11 44.1671L78.6011 72.6595C78.5277 72.7573 78.4176 72.7964 78.3075 72.7964Z" fill="white"/>
<path d="M152.338 133.732C152.191 133.732 152.026 133.634 151.971 133.477L136.06 98.9617C135.95 98.7466 136.042 98.4728 136.244 98.3751C136.445 98.2773 136.702 98.3555 136.794 98.5706L151.163 129.723L144.043 95.7742C143.988 95.5395 144.135 95.3048 144.355 95.2462C144.575 95.1875 144.795 95.3439 144.851 95.5786L152.742 133.184C152.797 133.399 152.668 133.634 152.466 133.692C152.43 133.731 152.375 133.732 152.338 133.732Z" fill="white"/>
<path d="M152.338 133.732C152.246 133.732 152.154 133.692 152.081 133.634L119.745 105.435C119.562 105.278 119.544 105.004 119.69 104.809C119.837 104.613 120.094 104.594 120.278 104.75L149.475 130.231L128.206 102.091C128.059 101.895 128.095 101.621 128.261 101.465C128.444 101.308 128.701 101.347 128.848 101.523L152.65 133.008C152.778 133.184 152.778 133.438 152.613 133.595C152.54 133.692 152.448 133.732 152.338 133.732Z" fill="white"/>
<path d="M152.338 133.732C152.301 133.732 152.265 133.732 152.228 133.712L117.727 124.306C117.507 124.247 117.36 123.993 117.433 123.758C117.488 123.524 117.708 123.367 117.947 123.445L148.888 131.874L117.947 114.88C117.745 114.763 117.653 114.508 117.763 114.274C117.874 114.059 118.131 113.961 118.332 114.078L152.54 132.871C152.723 132.969 152.815 133.203 152.742 133.419C152.668 133.614 152.503 133.732 152.338 133.732Z" fill="white"/>
<path d="M117.231 142.61C117.048 142.61 116.864 142.473 116.828 142.277C116.773 142.043 116.919 141.788 117.14 141.749L149.071 133.673L117.543 132.969C117.305 132.969 117.121 132.754 117.14 132.519C117.14 132.265 117.378 132.05 117.562 132.089L152.356 132.871C152.558 132.871 152.742 133.047 152.76 133.262C152.778 133.477 152.65 133.692 152.448 133.751L117.341 142.629C117.286 142.61 117.268 142.61 117.231 142.61Z" fill="white"/>
<path d="M116.901 152.622C116.754 152.622 116.607 152.524 116.534 152.368C116.424 152.153 116.516 151.879 116.717 151.781L152.154 132.891C152.356 132.773 152.613 132.871 152.705 133.086C152.815 133.301 152.723 133.575 152.522 133.673L117.085 152.564C117.029 152.603 116.974 152.622 116.901 152.622Z" fill="white"/>
<path d="M131.802 34.5653C131.362 34.5653 127.6 33.1964 79.9958 15.8897C79.7939 15.8115 79.6655 15.5768 79.7205 15.3422C79.7756 15.1075 79.9775 14.9706 80.1977 15.0293L130.812 25.8239C131.032 25.8631 131.179 26.0977 131.142 26.3519C131.105 26.5866 130.885 26.7626 130.646 26.7039L86.2537 17.2391C99.7789 22.1475 131.38 33.6462 131.729 33.7635L131.601 34.1742L131.839 34.5457C131.839 34.5653 131.839 34.5653 131.802 34.5653Z" fill="white"/>
<path d="M132.683 44.3039C132.61 44.3039 132.537 44.2844 132.482 44.2453L120.92 37.2639C120.718 37.1466 120.645 36.8728 120.755 36.6577C120.865 36.4426 121.122 36.3644 121.324 36.4817L132.885 43.463C133.087 43.5804 133.161 43.8542 133.05 44.0693C132.977 44.2257 132.83 44.3039 132.683 44.3039Z" fill="white"/>
<path d="M133.95 55.6657C133.84 55.6657 133.748 55.6266 133.656 55.5484L124.627 46.2008C124.462 46.0248 124.462 45.7511 124.627 45.5751C124.792 45.3991 125.049 45.3991 125.214 45.5751L134.243 54.9226C134.408 55.0986 134.408 55.3724 134.243 55.5484C134.17 55.6266 134.06 55.6657 133.95 55.6657Z" fill="white"/>
</svg>
